<svg id="圖層_1" data-name="圖層 1" xmlns="http://www.w3.org/2000/svg" viewBox="0 0 60.26 60.24"><defs><style>.cls-1{fill:#86c3d5;}</style></defs><path class="cls-1" d="M60.26,27.69v4.93c-.14,1-.22,2.07-.45,3.07q-4,18-21.58,23.52a30.24,30.24,0,0,1-5.59,1H27.71c-1-.14-1.94-.25-2.9-.42A30.13,30.13,0,1,1,35.58.54c12.18,2.34,20,9.82,23.68,21.67A30.74,30.74,0,0,1,60.26,27.69ZM12.92,30.15c.1,2.75,0,5.53.26,8.3a9.16,9.16,0,0,0,3.81,7,10.93,10.93,0,0,0,6.22,1.82c4.42.14,8.85.16,13.27,0A18.33,18.33,0,0,0,39.35,47a8.87,8.87,0,0,0,7.48-6.67,11.39,11.39,0,0,0,.44-3,149.55,149.55,0,0,0-.11-15.56,8.94,8.94,0,0,0-4.24-7.28,10.53,10.53,0,0,0-5.49-1.51c-5.16-.15-10.33-.25-15.5.09a9.21,9.21,0,0,0-8.77,8.75C13,24.64,13,27.38,12.92,30.15Z"/><path class="cls-1" d="M15.93,30.12c0-2.36,0-4.73.12-7.1a7.23,7.23,0,0,1,2.08-5.26A7.41,7.41,0,0,1,23,16c4-.21,8-.14,12-.09a21.91,21.91,0,0,1,4,.29,6.12,6.12,0,0,1,5.17,5.68,62.45,62.45,0,0,1,.22,6.27c0,3,0,6-.11,9A11.21,11.21,0,0,1,44,39.32a6.09,6.09,0,0,1-5.64,4.85c-3.48.35-7,.21-10.45.23a56.92,56.92,0,0,1-6-.22,6.2,6.2,0,0,1-5.81-5.84C15.87,35.61,15.94,32.86,15.93,30.12Zm23,.06a8.79,8.79,0,1,0-8.84,8.76A8.73,8.73,0,0,0,39,30.18ZM41.41,21a2.08,2.08,0,0,0-2-2,2,2,0,1,0,2,2Z"/><path class="cls-1" d="M30.17,24.35a5.81,5.81,0,1,1-5.8,5.76A5.75,5.75,0,0,1,30.17,24.35Z"/></svg>