<svg id="圖層_1" data-name="圖層 1" xmlns="http://www.w3.org/2000/svg" viewBox="0 0 60.27 60.27"><defs><style>.cls-1{fill:#86c3d5;}</style></defs><path class="cls-1" d="M29.87,27.14a2.11,2.11,0,0,0-.08.87c0,1.06,0,2.13,0,3.19a1,1,0,1,1-1.94,0c0-.48,0-.95,0-1.43V24.32c0-.62.23-1,.67-1.14a1.06,1.06,0,0,1,1.23.49l3.09,4c.1.13.17.32.37.37.13-.17.07-.35.07-.53,0-1,0-2,0-3a2,2,0,0,1,.11-.73,1,1,0,0,1,1.8,0,1.65,1.65,0,0,1,.12.73v6.39a2.55,2.55,0,0,1,0,.39,1,1,0,0,1-.75.94,1,1,0,0,1-1.08-.41l-2.65-3.42Z"/><path class="cls-1" d="M36.6,27.64c0-1.1,0-2.2,0-3.3,0-.85.36-1.24,1.21-1.25,1.12,0,2.23,0,3.35,0,.73,0,1.2.45,1.18,1s-.47,1-1.2,1-1.34,0-2,0c-.39,0-.55.15-.52.53a2.54,2.54,0,0,1,0,.39c0,.47.18.64.64.62.67,0,1.34,0,2,0s1.19.57,1.07,1.18a1,1,0,0,1-1,.8q-1.08,0-2.16,0c-.39,0-.52.16-.53.53,0,1.07,0,1.07,1,1.07.56,0,1.11,0,1.67,0a1,1,0,0,1,1.06.94,1,1,0,0,1-.94,1,25.13,25.13,0,0,1-3.88,0,1,1,0,0,1-.92-1.06c0-1.17,0-2.33,0-3.49Z"/><path class="cls-1" d="M17.93,27.63V24.78c0-.17,0-.33,0-.49.06-.76.46-1.2,1.06-1.17s.94.47.94,1.21q0,2.66,0,5.31c0,.45.13.63.59.61.7,0,1.41,0,2.11,0a1,1,0,1,1,0,1.94c-1.13,0-2.26,0-3.39,0-.92,0-1.28-.33-1.3-1.27,0-1.1,0-2.2,0-3.3Z"/><path class="cls-1" d="M24.5,27.64V24.2c0-.76.33-1.11,1-1.11s1,.34,1,1.1q0,3.47,0,6.93c0,.78-.31,1.1-1,1.1s-1-.32-1-1.09Z"/><path class="cls-1" d="M30.14,0A30.14,30.14,0,1,0,60.27,30.14,30.13,30.13,0,0,0,30.14,0Zm17,33.81A33,33,0,0,1,37,43.82a67.89,67.89,0,0,1-7,4,1.2,1.2,0,0,1-1.2.12.94.94,0,0,1-.48-1c.1-1.09.22-2.18.33-3.28.09-.92-.25-1.38-1.16-1.49A22.41,22.41,0,0,1,20.07,40a15.76,15.76,0,0,1-8-8.26,11.75,11.75,0,0,1,.17-9.37A15.84,15.84,0,0,1,20,14.6a22.76,22.76,0,0,1,10.42-2.38,21.45,21.45,0,0,1,12.55,4,14.07,14.07,0,0,1,5.87,8.58A11.88,11.88,0,0,1,47.17,33.81Z"/></svg>