<svg id="圖層_1" data-name="圖層 1" xmlns="http://www.w3.org/2000/svg" viewBox="0 0 1239.26 1816.77">
  <defs>
    <style>
      .cls-1 {
        fill: none;
        stroke: #abbac9;
        stroke-miterlimit: 10;
      }
    </style>
  </defs>
  <title>0704svg</title>
  <g>
    <path class="cls-1" d="M671.11,496.47C496.83,559.58,332.74,664.31,353,833c41.78,347.63,470.85-22.09,487.14,183.69C889.2,1636.49.1,1816.28.1,1816.28"/>
    <g>
      <path class="cls-1" d="M1078.18.28s-23.58,34.78-51.66,39.56-50,41.76-83,53.66-108.64,34.33-111.13,85.83S789.6,266.15,786,284.23s10.27,10.28,13.7,6.85,12.07-43.27,17.69-55.19"/>
      <path class="cls-1" d="M839.5,443.12C864.64,415.28,899,375.51,912,361c2.33-2.6,16.17-24.1,34.81-31.22s76.59-63.38,98.65-87.61,5.38-71.64,5.38-71.64"/>
      <path class="cls-1" d="M714.2,481.79c7.29,12.62,32.82,24.11,55.3,13.37,0,0,31.92-11.08,56.18-37,4.06-4.34,8.76-9.47,13.82-15.08"/>
      <path class="cls-1" d="M780.69,294.23s-11.8,27.66-1,34.1c0,0-35.36,41.9-44.4,50.39s-28.1,59.57-25.51,68.74-.28,15.62,2.59,29.73a15.55,15.55,0,0,0,1.81,4.6"/>
      <path class="cls-1" d="M1015.65,477.6s17.38,28.9,61.49,21.53,42.46-2.72,84.38-22.16,57.27-30.93,77.28-75"/>
      <path class="cls-1" d="M990.89,76.81s-12.61,19.72-24.66,28.75S949.92,130.62,934.3,144s-58.11,64.07-66.74,69.68-43.16,41.76-50.29,57.37-32.9,52-35.23,54.64"/>
      <path class="cls-1" d="M810.63,283.29s-5.56,11.49-10.36,10.81l-1.92-.28"/>
      <path class="cls-1" d="M734.74,430.49s17.54-20,29.59-8.48,24.5,40.69,28.47,40.28-17.82,28.76-22.89,30-22.33,12.45-40.95-1S711,466.23,717.75,453.49A108.82,108.82,0,0,1,734.74,430.49Z"/>
      <path class="cls-1" d="M919.14,345.38s-27.81,2.86-46.29-11.53-31.62-38.78-31.62-38.78"/>
      <path class="cls-1" d="M1049.58,240.79s2.74,8.22-14.12,23.41-19,16.84-19,16.84-5.89-6.71-7.81,6.71-36.72,24.09-67.28,59.83-24.94,17-46.87,47.09c0,0-14.65,6.71-22.06,17.39s-10.55,5.34-19.59,20.67c0,0,13.81,53.84,69.28,55.92s88.48-3,171-73.34c0,0,31.66-29.71,44.81-39.57s8.37-31.09,13.71-41.08"/>
      <path class="cls-1" d="M1015.87,284.88s6.29,31.23,10.39,36.71a9.47,9.47,0,0,1,.41,10.82s-9.31-3.29-10-12.19c0,0-4,.41-4.24-11.37,0,0-2.74-1.37-3.42-10.28,0,0-1.91-7.12.28-8.76"/>
      <path class="cls-1" d="M1024.34,321.32s-1.09.82-6.71-1"/>
      <path class="cls-1" d="M1021.06,310.08l-6.71-1"/>
      <path class="cls-1" d="M1010.25,296.79s4.93,6.58,8.62,8.09"/>
      <path class="cls-1" d="M699.87,486.05c7-7.22,11.91-12.29,11.91-12.29L711,455l-3.62,2.91s-67.14,72.57-76.87,79c0,0-6.71-1-7.81,6.71s6.16,11.64,9.31,10.14-1.23-5.07,1.78-5.62,13.7-6.84,20.69-14.64c4.8-5.37,30.09-31.55,45.44-47.41"/>
      <path class="cls-1" d="M621.55,544.4s-2.6,4.52-3.7,5.34-36.85,25-61.1,30.38c0,0-3.29,2.47,5.61,1.78s56.83-20,67.19-27.94C629.55,554,621.41,552.21,621.55,544.4Z"/>
      <path class="cls-1" d="M557,578.2s-12.32-9.59-37.53,2.45-63.43,33-86.86,60c0,0-2.19,1.64-.69,4.79s1,7,7.4,3,15.21-24.24,61-50,44.52-10.25,57.94-8.33,10.83-7.25,7.81-6.71-3.83-.55-3.83-.55"/>
      <path class="cls-1" d="M414.81,662.52s18.78-21.78,21.1-17.53-13.43,11.78-30.56,35.74S372.44,767,356,772.48l-3.42-3.43s8.63,1.24,31.67-57.1C400.13,671.73,414.81,662.52,414.81,662.52Z"/>
      <path class="cls-1" d="M1016.26,323.09s-5.07,8.08,9.17,11.1l-1.09,7.67s8.62,1.24,4.8-13"/>
      <path class="cls-1" d="M1017.9,332.13s-20.33,128.2,27.46,170.27,70.39,20.85,77,22.77.14-7.81-19.32-1.79-105.19-10.18-78.67-181.52V335Z"/>
    </g>
  </g>
</svg>
