<svg id="圖層_1" data-name="圖層 1" xmlns="http://www.w3.org/2000/svg" viewBox="0 0 287.42 276.58"><defs><style>.cls-1{fill:#ebeae5;}.cls-2,.cls-4,.cls-5,.cls-6,.cls-8,.cls-9{fill:none;}.cls-10,.cls-2,.cls-4,.cls-5,.cls-6,.cls-7,.cls-8,.cls-9{stroke:#354b5e;}.cls-10,.cls-2,.cls-4,.cls-6,.cls-7,.cls-8{stroke-linecap:round;stroke-linejoin:round;}.cls-10,.cls-2,.cls-5{stroke-width:0.5px;}.cls-10,.cls-3,.cls-7{fill:#354b5e;}.cls-4{stroke-width:0.25px;}.cls-5,.cls-9{stroke-miterlimit:10;}.cls-8{stroke-width:1.5px;}</style></defs><path class="cls-1" d="M171.07,243s-.49.65,7.28,10.75,25.26,9.46,25.26,9.46c36.46-1.85,40.31-17.56,40.31-17.56s-1.65-27.71-2.14-30a4.77,4.77,0,0,0-1.82-3.07l-.75-.3c0-.37,0-.81,0-1.31h0c0-1.4-.13-6-.36-11.47l1.29.2c.29.56.43,1.31.72,1.51,2.16,1.45,3-8,2.81-9.07s-1.45-17.06-.81-21.6-2.3-9.37-2.3-9.37l.36-7.28,5.24-.63a136.82,136.82,0,0,0,29.59-7.18l10.3-4.49.07-.79a148.65,148.65,0,0,0-5.74-37.53,232.64,232.64,0,0,0-13.64-29.33m0,0c-9.49-17.19-22.86-32.43-40.71-45.44-8.71-7.48-19.53-13.38-32.25-18.34-.33-.86-3.18,26.15-3.49,27.56.15-1.44.23-2.3.23-2.3l-.35,2.85c-.35,1.88-.71,5-1.07,8.82L188,56h-.26L185.65,68.4a5.54,5.54,0,0,1-1.09,2.31c-2.77,2.27-6.32,56.07-6.32,56.07l.19,4.85-1.22,1.22-.5.65a36.39,36.39,0,0,0-5.84,4.6l-1.5,1.18c-.19.19-1.71.74-1.9.92a57.86,57.86,0,0,1-9.65,0s-.44.17-1.25.53l-1.54-.38-3.22-.36-5-14.4,2.21-2.55-1.59-2.52-4.21-21.16L145.15,54l-.21-54L133.52,0,105,3.75,87.15,9.14,75.41,14.09,56.51,24.83,40.3,37.39,22.54,57.59l.09,3.25c.15,4,.66,24-2,35.22a22.55,22.55,0,0,0,6.65,7.09,98.44,98.44,0,0,0,17.82,10.1c2.67,1.32,18.12,8.2,28.5,11.14,1.34.14,1.91,1.59,1.88,3.48a47.5,47.5,0,0,1,.07,8.85,102,102,0,0,1-1.8,11.2,4.17,4.17,0,0,1-1.87,2.88c-.44.28-10.32,6.18-11.8,10.62S57,174.81,57.15,176.77l.05,1.06-.05.78.39.61-.06.57-2.3,6.48-1.09,3.2,0,1.32-2.52.78s-6.26,14-8.08,14.61l-.7-.76s-5.74.39-11.08,1.36l-1.75.28-1.54.29c-.36.08-1.24.13-1.4.21H25.29l-11,4.95-.81,1.62L.31,222.56.17,233.22l.81.64L0,245.57s3.06,11.69,5.74,14.55c3.72,4,10.92,12.86,19,14.21s14.91,3.53,29.16-.2S89.43,259.33,98,254.79s18.3-8.43,18.3-8.43l4.23,10.86L160,246.51a148.87,148.87,0,0,0,25.54-10.82m.12-56.06a1.8,1.8,0,0,1-.08-.21l1,.1ZM188.35,56h-.3c.27-1.82.53-3.67.77-5.49C188.67,52.24,188.51,54.08,188.35,56Z"/><path class="cls-2" d="M78.52,190.79c-12.49-3.69-18-17.71-18-17.71l1.19-3.78c.56-.86,5.3-9.94,5.3-9.94l2,.54s-2.59-2.7-5.08-.54-4.1,14.16-4.1,14.16l-2.09,5.6"/><path class="cls-2" d="M103.56,183.35s25.93,12.69,33.7,14.79c0,0,1.3,1.63-1,5s-7.12,9.07-11.83,8.1-28.68-10-28.68-10l-1.24.65-3.24-.36-.76-.65-11.62-7.13-.4-2,1.11-5.69-.77-.9.24-2.51,1.38.68,1.7-9,.33-.57"/><polygon class="cls-3" points="95.78 201.22 96.66 200.87 97.53 199.97 99.51 183.72 99.27 182.5 98.94 182.75 94.38 201.87 95.78 201.22"/><polyline class="cls-2" points="81.93 186.88 83.06 186.88 83.87 186.4 84.03 184.13 83.47 183.34"/><polyline class="cls-2" points="84.2 176.19 93.51 181.45 94.16 182.75 91.73 195.63 90.39 197.84"/><polygon class="cls-3" points="83.17 187.01 82.17 192.12 90.32 197.67 90.16 197.84 87.4 196.46 81.86 192.84 81.07 191.87 81.54 186.65 83.17 187.01"/><path class="cls-4" d="M99.28,183.72s30.46,13.94,33.86,14.83,2.11,2.35,2.11,2.35-7,7.94-8.26,8.28-29.67-9.38-29.67-9.38"/><path class="cls-2" d="M61.52,170.05s1.67,12.08,17.53,19"/><path class="cls-2" d="M66.29,160.86s.4,6.16,15.64,14.24"/><path class="cls-5" d="M74.82,125.55s27.83,6.16,71.72-.35"/><path class="cls-6" d="M22.54,57.59c.15,4,.75,27.24-1.95,38.47,6.72,13.58,53.59,28.53,53.59,28.53l.72.9.3.8c1.45,7.69-.56,18.76-2.17,23.29l-.59.72s-11,6.8-12.48,11.34-3,16.41-2.81,18.15"/><path class="cls-5" d="M156.76,141.1c-6.87,3-40.06,18.28-53.2,42.25l-4.21-1.41v-1.09L85.2,173.29l-2.49.11s-16.2-10.58-14-12.86l1.19.11s.54-7.78,2.37-9.29a5.53,5.53,0,0,0,1-1.93"/><path class="cls-6" d="M156.76,141.1c.8-.37,1.25-.53,1.25-.53s10.85,10.57,12.64,16.09,4.7,7.66,4.7,7.66c9.72,4.74,14.9,31.06,14.9,31.06,3.73-1.79,5,1.05,5,1.05s4.21,11.91,6.8,17.74,1.3,7,1.3,7c-8.91,15.4-43.17,25.77-43.17,25.77l-39.47,10.7-4.24-10.85s-9.7,3.89-18.29,8.43-30,15.22-44.23,18.95-20.91,1.14-29,0S9.59,262.64,6.5,260.22.5,246,.5,246l.81-12.15-.81-.65V223l13.13-8.42.81-1.62,10.85-5.35h2.59c1.63-.81,15.56-2.27,15.56-2.27l.71.75c1.82-.64,7.45-14.47,7.45-14.47l2.38-.65V189.8l1.09-3.2,2.78-7.47"/><path class="cls-5" d="M94.54,201.88S92.23,224.09,99,237.79"/><path class="cls-2" d="M71.26,242.56c2.81.21,25.4-10.69,25.4-10.69l-2.28-9.67L69.1,239.84s-.54,2.38-5.89-6.69-10.69-14.65-9.07-40.62"/><path class="cls-2" d="M194.47,195.92s6.05,4-20.1,16.32C148.64,224.42,106.48,237,100,241.9S40,274.3,21.57,262.15,2.44,245.44,1.06,240.91"/><path class="cls-2" d="M16.27,214.78s-9,4.22-10.91,10.48-3.13,9.29-2.05,16.64,18.47,20.85,26.25,21,13.89,2.06,41.27-8.85,32.31-18.88,66.11-30.41c35.76-12.23,50.88-21.27,53.49-26.54"/><path class="cls-2" d="M178.1,178.63v2.28s6.32,10.11,6.32,20.15"/><path class="cls-3" d="M39.67,256c1.58,1.57,5.27-3.66,5.27-3.66H36.65C36.26,253.17,39.67,256,39.67,256Z"/><path class="cls-2" d="M15.42,214.43v-.65l13.77,2.55v.94s-10.7,4.86-13.77,14.26-4.79,11.92,3.07,24.32"/><path class="cls-2" d="M35.64,216.33l-12.86,7.9s-5,2.43-6.63,5.43"/><path class="cls-2" d="M34.86,223s-4.43,6-4.54,12.85,2.48,19.32,12,23.66a25.14,25.14,0,0,0,7.86-.76"/><path class="cls-2" d="M121.13,229.55a91.07,91.07,0,0,0-9.56,3,61.61,61.61,0,0,0-9.65,5.05l-2.64.37-1,.51-17.36,8.38"/><path class="cls-2" d="M44.15,260.37s-13.86,3.09-25.16-4S3.68,243.18,3.68,243.18"/><path class="cls-3" d="M5.48,224.52l-3.7-.61a.21.21,0,0,0-.24.2L1.71,233a.2.2,0,0,0,.39.07l2.34-6.16,0-.05,1-1.38Z"/><polygon class="cls-7" points="14.31 215.34 16.19 214.59 16.9 214.31 14.36 213.61 14.31 215.34"/><path class="cls-2" d="M29.38,207.31s9.32-.38,14.35-.79"/><path class="cls-6" d="M145.45.51c1,81.2-4.21,88.24-1.27,104.64,2.15,12,3.29,15.34,3.29,15.34l1.77,2.5-1,1.55c-.2,0-1.37.64-1.57.67l.54,1.39s3.29,11.12,5.25,12.57,3,.63,4.26,1.94"/><path class="cls-8" d="M241.73,153.74c16.86-1.76,33.91-6.13,44.94-12.64"/><path class="cls-5" d="M178.93,132.52c1.26,4.69,5.11,11.61,16.44,17.13,9.91,4.84,28,6,46.36,4.09"/><path class="cls-6" d="M193.81,10.16s-6.3,58.68-9.06,60.94-6.33,56.07-6.33,56.07a14.21,14.21,0,0,0,.51,5.35"/><path class="cls-3" d="M178.63,132.73l-.2-1.1a69.66,69.66,0,0,0-7.11,5.75l-2.71,2-6-.2-6.47.79,1,.62.91-.26,5.71,5.78.55-.66a41.63,41.63,0,0,1,5.45-5.8"/><path class="cls-2" d="M241.1,161.05c0,1.14,0,2.26,0,3.19.11,3.46-.21,9.29-4.86,9s-8.75,2.59-8.75,2.59a97,97,0,0,1-41.7,4"/><path class="cls-8" d="M241.51,154.61s-.28,3.3-.4,6.43"/><path class="cls-2" d="M227.2,157.63s-2.59,10.38-2.11,12.64-1.29,5.19-1.29,5.19"/><path class="cls-3" d="M180.58,138.51s-2.16,5.4-4,5.73-9.4,4.86-9.4,4.86l1.3-4.65,9.19-9h1.73"/><path class="cls-9" d="M240.08,198.6c-1.73-4.44-3.32-13.09-3.32-13.09s2-4,2-6,.86-5.18-.82-5.75"/><path class="cls-8" d="M241.51,161.05s2.22,5.35,1.57,9.89.65,20.52.81,21.6-.21,10-2.38,8.54a5.73,5.73,0,0,1-1.43-2.47"/><path class="cls-2" d="M235.89,186.91s-1-.28-.64,2.94,1,5.44,1.94,6.6"/><path class="cls-2" d="M239.43,211.36c0,.86,0,1.56-.08,2-.21,2.71.43,7.66-1.4,10.37s-3.67,10.38-20.74,13.72-23.29,2.52-31.83-.83"/><path class="cls-8" d="M239.35,199s.15,8.09.08,12.36"/><line class="cls-2" x1="211.59" y1="237.36" x2="211.59" y2="220.72"/><path class="cls-6" d="M239.85,211.75a8,8,0,0,1,2.58,3.89c.5,2.29,1.49,30,1.49,30s-3.76,15.58-40.22,17.43c0,0-17.84.45-25.6-9.65s-7.41-10.28-7.41-10.28"/><path class="cls-2" d="M105.84,130.25s-.81,8.05,0,8.88-5.19,19.15-14.26,14.13"/><path class="cls-7" d="M54.42,192.53c.37-1.62,8.15-15.13,8.15-15.13s-5.3,22-8.49,24.63C53.5,200.43,54,194.14,54.42,192.53Z"/><path class="cls-2" d="M33,231.3,35,229.66v-3.32l-.81,1.3s-2.7,6.58-2.17,10.15.88,15.94,12.11,21"/><polygon class="cls-7" points="90.9 188.61 90.17 189.58 90.9 189.9 90.9 188.61"/><polygon class="cls-6" points="103.01 193.32 103.01 194.7 101.8 194.7 103.01 193.32"/><path class="cls-5" d="M96.55,201.61s-3.2,19.2,3.71,36.18"/><path class="cls-2" d="M51.59,192.1s-2,4.26,1.09,21.68,18.67,36.15,26.73,33.92"/><path class="cls-2" d="M37.79,210.3s-3.12,16.47.27,25.76,13.06,21.28,13.06,21.28"/><path class="cls-2" d="M34.21,222s-4.6,4.86-5.6,11,1.14,23.33,11.9,26.52"/><path class="cls-2" d="M158,142.3s-36.69,18.4-52.34,41.42"/><path class="cls-2" d="M237.19,174.81A18.66,18.66,0,0,0,228,177.4c-4.7,2.76-24.63,7.78-40.84,3.73"/><path class="cls-5" d="M202.61,215.44s-4.41,8.79-21.35,17.07-42,15.4-61.66,19.69"/><path class="cls-5" d="M199.28,207.28s-.71,8-32.09,20.2-49.85,19.17-49.85,19.17"/><path class="cls-2" d="M197.82,203.44s-8,10.69-28.47,18.6-54.61,19.26-54.61,19.26-6.32,6.77-19.61,12.12-32.68,18-53.31,18.78-33-8.43-39.37-22.69L.86,246.67"/><path class="cls-2" d="M196.66,200.3s-7.21,9.95-33.47,19.13-49.58,18.36-49.58,18.36L65.64,261s-40.29,19.44-60.5-8.92a69.67,69.67,0,0,1-4.43-8.53"/><line class="cls-2" x1="209.86" y1="154.61" x2="209.86" y2="162.52"/><path class="cls-2" d="M243.16,227s-5.57,17.28-41.4,17.61a49,49,0,0,1-21.91-5.51"/><polygon class="cls-3" points="83.67 183.83 82.3 184.17 81.2 184.02 80.35 183.6 81.18 182.75 82.53 182.23 83.3 176.34 84.03 175.98 85.99 177.44 85.44 177.73 84.33 178.34 83.67 183.83"/><polygon class="cls-3" points="79.24 185.18 80.2 186 81.93 186.65 81.87 187.54 79.97 186.58 79.24 185.18"/><path class="cls-2" d="M69,240.3l-.61-.29.74,1.08s4.74,5.51,11.67,4.7v1.13a108.66,108.66,0,0,1-28.4,11.34H50.75C34.22,240.6,36,231.36,35.68,225s2.11-14.74,2.11-14.74l6.25-4"/><path class="cls-3" d="M67.93,159.34s-4.18-2.63-5.78,3.7a70.87,70.87,0,0,0-1.91,9.68l0,.38,1.24-3.7,5.36-10.12Z"/><polygon class="cls-10" points="16.15 251.77 20.58 257 18.81 255.88 16.15 251.77"/><path class="cls-10" d="M75.51,125.8l.48,3.73s13.58,1.61,19.15-1.59H94S76.1,126.27,75.51,125.8Z"/></svg>