<svg id="圖層_2" data-name="圖層 2" xmlns="http://www.w3.org/2000/svg" viewBox="0 0 924.33 924.33">
  <defs>
    <style>
      .cls-1, .cls-2, .cls-3, .cls-4, .cls-5 {
        fill: none;
        stroke: #000;
      }

      .cls-1, .cls-3, .cls-5 {
        stroke-miterlimit: 10;
      }

      .cls-2, .cls-4 {
        stroke-linecap: round;
        stroke-linejoin: round;
      }

      .cls-2, .cls-3 {
        stroke-width: 3px;
      }

      .cls-5 {
        stroke-width: 0.5px;
      }
    </style>
  </defs>
  <title>文章介紹</title>
  <circle class="cls-1" cx="462.16" cy="462.16" r="461.66"/>
  <path class="cls-2" d="M107.18,167s158.53,149.39,162.08,153,85.15,64.38,85.15,64.38l16.78-11.05s-36.74-45-39.7-88.89,26.07-141.63,68.74-188.44S516.84,5.07,516.84,5.07"/>
  <path class="cls-3" d="M15.62,344.52S85,383.35,96.82,397.57s48.59,29.63,48.59,29.63,87.11,50.37,107.26,101.92S304.46,714.6,304.46,714.6s-5.57,24.89,25.84,45,33.19,13,105.48,73.48c0,0,32.6,37.93,41.48,43.26S522,920,522,920"/>
  <path class="cls-1" d="M551.35,679c-9.13-8-15.57-13.35-15.57-13.35S504.23,641,502,637.86s-24.45-39.11-24.45-45.55-1.11-32.67-5.55-43.56-19.34-57.55-51.34-93.11-72.44-57.78-72.44-57.78-30.67-18.66-38.67-31.55"/>
  <path class="cls-1" d="M359.93,643.49l32,11.86s19.56,8.88,31.41,15.4,35.55,24.89,58.07,49.19,60.45,67,60.45,67,19.55,10.67,23.11,8.3c2.08-1.39,14.21,4.23,25.19,1.65"/>
  <path class="cls-1" d="M605.86,756.38s-17.48-24-21.34-25.48-13.33-7.41-18.07-3.55-26.07,20.74-26.37,25.18,10.67,27.26,22.52,38.22"/>
  <path class="cls-2" d="M567.89,890.25c-8.18-16.21-68-135-75.22-154.9l-38.22-3.26-4.74,10.37s46.81,49.77,52.44,64.89,20.15,26.37,20.15,26.37,26.08,18.66,29.63,37l13.63,18.67,1.56.89"/>
  <path class="cls-1" d="M580.38,902.16l-11.56-10.07-.93-1.84"/>
  <path class="cls-3" d="M589.86,797.54l35.26,75.58s3,29.93-44.74,29"/>
  <path class="cls-1" d="M423.34,673.42s-21,32.89-33.78,43"/>
  <polyline class="cls-1" points="410.89 696.53 410.89 701.57 445.56 738.61"/>
  <line class="cls-1" x1="449.71" y1="701.27" x2="449.71" y2="738.6"/>
  <line class="cls-1" x1="418.01" y1="670.46" x2="391.93" y2="681.12"/>
  <path class="cls-4" d="M371.19,373.27s-.3,12.59,4.15,14.37S389.12,381,389.12,381l-3.56-14.67s-24.44-34.67-28.89-50.22S343.78,213,378.89,161.42s6.23-43.11,125.78-132.89L535.82,8.36"/>
  <path class="cls-1" d="M406.75,384.23s36.44,39.41,75.26,35.86,67,3.26,154.07-83"/>
  <path class="cls-1" d="M660.38,338.31s-10.67-8-45.34-4.45-81.18,13.93-116.15,4.45-34.37-59-9.77-77.33S538.3,248.23,607,250.9,669,226,697.12,216.23s46.81-29.33,55.11-32.29,16-14.82,16-14.82"/>
  <path class="cls-1" d="M445.69,470.17l23,50.95s9.48,28.15,8.89,32.89-1.18,29.34,1.48,31.41,6.82-3.5,6.82-3.5"/>
  <line class="cls-3" x1="421.78" y1="417.13" x2="445.69" y2="470.17"/>
  <polyline class="cls-1" points="386.3 369.36 393.12 364.09 397.86 364.09 421.77 417.13"/>
  <line class="cls-1" x1="393.12" y1="366.31" x2="461.06" y2="518.46"/>
  <polyline class="cls-1" points="371.19 373.27 352.46 386.31 359.49 404.68"/>
  <path class="cls-1" d="M514.41,561.84l-.4.47-42.47-36.45"/>
  <path class="cls-2" d="M446,470.8s33.36,6.77,36.91,11.51S514.3,533.57,514,538.9s4.5,16.55-2.23,24.74"/>
  <path class="cls-1" d="M479.34,562.31c5-16.59,22.81-6.82,22.81-6.82l8,8.15"/>
  <path class="cls-2" d="M511.78,564.45l17.93,15.34s3-1.07,7.7,2.13,22.22,22.17,22.82,28.39,1.78,46.22-5.63,65.48l-3.25,3.2c11.73,10.3,27.91,25,40.66,38.65,22.66,24.22,15.77,41.56,15.77,41.56v14.22C605.2,789,598,795,590.16,796.85"/>
  <path class="cls-1" d="M536.23,642.9s-11.85,2.67-17.19,0l-31.7-61"/>
  <path class="cls-1" d="M522.6,417.58s-30.82,8.73-45.48,7.84-58.72-15.78-58.72-15.78"/>
  <path class="cls-1" d="M566.89,481.53s4,6.56,6.67-16.55-3.11-47.4-3.11-47.4-7.11-11.27-25.78-5.05"/>
  <path class="cls-2" d="M421.18,415.81l74.16,61.61s8,4.89,16.44,4,55.11.11,55.11.11l1.78,3s2.88,5.76,14.59-1.26"/>
  <path class="cls-5" d="M665.08,239.64s23.56-8,40.45-2.22,37.77,16,37.77,16"/>
  <path class="cls-1" d="M657.56,97.42s-18.22,14.22-30.67,3.56-54.66-54.67-78.66-51.12-5.78-23.55-5.78-23.55h7.73l13.05-13"/>
  <path class="cls-1" d="M587.89,19.68,565.56,45s-18.22-6.23-20.89-6.23,22.9-24.45,22.9-24.45"/>
  <path class="cls-1" d="M653.56,90.31s-11.11,14.22-24.89,0S569.12,47.2,569.12,47.2"/>
  <path class="cls-1" d="M543,9.1,478,65.86s-54.23,56-63.56,77.34-42.67,72.44-37.78,128S398,363.69,453.12,387.89s115.3-6.47,155.65-34.47L630,337.12"/>
  <path class="cls-1" d="M644.23,337.12s1.78,55.28,16.89,80.46"/>
  <path class="cls-1" d="M592.23,381S586,403.07,594,417.58s19.11,22,21.77,28.94"/>
  <path class="cls-1" d="M641.12,337.12,599.78,381s14.42-16,20.1-11.56,6.57,9.33,14.13,4.44,10.22-7.55,10.22-7.55"/>
  <path class="cls-1" d="M583.26,483.27c.46-.28.93-.57,1.41-.88,12.89-8.37,0-69,0-69l-13.33.33"/>
  <path class="cls-2" d="M892.23,302.31l-72.45,64-99.11,87.11s-16.89,41.33-55.59,33.34-79.52,0-79.52,0L581.91,484"/>
  <path class="cls-1" d="M535.82,271.2l-33.07-9.34s-11.41,4.89-15,23.12-3.07,35.8,9.94,45.77c0,0,23.4.45,30.06-4.44s20.45-3.56,20-34.67C547.78,291.64,547.26,274.42,535.82,271.2Z"/>
  <path class="cls-1" d="M406.75,167.64s17-4.76,121.92,76.73"/>
  <path class="cls-1" d="M420.67,132.54s25.34-3.12,179.11,115.1"/>
  <path class="cls-1" d="M640.67,39.64,630,44.09l-3.12,10L630,65.86l9.11,4.67,3.33-1.33-2.89-4.89-3.33-.45-1.56-5.41s1.78-7.92,7.78-7,13.78,16.44,13.78,16.44,55.78,79.78,78,83.56c0,0,2.66-2.22,4,2.67s-3.56,20.44-21.34,3.55S654.67,90.53,643.12,71"/>
  <polyline class="cls-1" points="640.67 39.64 648 39.64 655.56 47.2 657.56 56.31 653.56 63.08"/>
  <polyline class="cls-1" points="649.34 56.88 649.34 51.36 645.12 46.31 638.67 46.31 633.78 49.64 632.45 54.09 633.78 59.42 635.88 62.65"/>
  <line class="cls-1" x1="696.38" y1="71.91" x2="673.26" y2="87.79"/>
  <line class="cls-1" x1="689.12" y1="63.08" x2="667.04" y2="79.85"/>
  <path class="cls-1" d="M676.52,87.79s74.23,63.11,92.74,33.63"/>
  <path class="cls-1" d="M760.38,112.38s1,13.78-23.26.74-49.93-33.27-49.93-33.27"/>
  <path class="cls-1" d="M691.63,63.08s17.34,21,19.12,32.12"/>
  <path class="cls-1" d="M718,79.14s6.81,16.8,8.29,26.72"/>
  <line class="cls-1" x1="743.34" y1="97.72" x2="734.15" y2="109.72"/>
  <line class="cls-1" x1="722.89" y1="121.42" x2="712.52" y2="134.6"/>
  <path class="cls-1" d="M703.49,146.46l-11.86,17.33s-8.14,9.78,1,20.89a279.26,279.26,0,0,0,21.48,22.52"/>
  <path class="cls-1" d="M706.75,150.46l-12,17.18s-4.74,7.85,0,13.93,22.37,22.66,22.37,22.66"/>
  <line class="cls-1" x1="747.78" y1="100.98" x2="738.43" y2="112.38"/>
  <line class="cls-1" x1="728.08" y1="123.94" x2="717.12" y2="138.46"/>
  <path class="cls-1" d="M728.08,147.79l5.48-5.19,7.11-1.33s5.93,1.93,5.93,4.45.89,9.18-7,12"/>
  <path class="cls-1" d="M733,150.46s3.52-3.71,5.46-2.23,2.69,1.19,2.39,3.12-2.59,2.74-2.59,2.74"/>
  <path class="cls-1" d="M522.6,417.58s3.67,14.32,1.1,17.3"/>
  <path class="cls-1" d="M480.67,58.45s-61.78,52.9-79.11,82.82-52,95.26-32.89,152.59,41,97.56,90.49,110.82,89.07,1.18,140.62-38.37"/>
  <line class="cls-1" x1="519.04" y1="642.9" x2="523.7" y2="654.75"/>
  <path class="cls-5" d="M423.34,79.85s-50.67,54.61-63.85,102.61-27.41,65.18-17.93,109,34.62,78.23,34.62,78.23l4.73,9"/>
  <path class="cls-5" d="M539.45,50.53l2.33.83s5.56.5,6.67,0,6.67-.94,10.11,1.17,15.33,4.22,39,24.67,29.22,29.55,37.33,29.11,18.78-1.8,25.12-9.68"/>
  <circle class="cls-5" cx="443.59" cy="165.31" r="3"/>
  <circle class="cls-5" cx="474.54" cy="185.63" r="3"/>
  <circle class="cls-5" cx="506.1" cy="208.98" r="3"/>
  <circle class="cls-5" cx="535.31" cy="231.15" r="3"/>
  <path class="cls-5" d="M665.08,338.75s29.52,16,47.44,13.34"/>
  <path class="cls-5" d="M551.86,870.88s-3.59,7.11-6,7.71"/>
  <path class="cls-5" d="M523.7,693.57s-30.14,27.26-31.62,30.52"/>
  <path class="cls-5" d="M771.19,167.59s34.67,1.39,51.56,9.76"/>
  <path class="cls-1" d="M769.26,167.59s-4.14-5.13,5.41-9.87,15.11-16.45,15.11-16.45"/>
  <polygon points="385.41 365.26 387.87 368.15 386.41 368.94 385.41 365.26"/>
</svg>
