<svg id="圖層_2" data-name="圖層 2" xmlns="http://www.w3.org/2000/svg" viewBox="0 0 924.33 924.33">
  <defs>
    <style>
      .cls-1, .cls-10, .cls-11, .cls-12, .cls-13, .cls-14, .cls-15, .cls-2, .cls-3, .cls-4, .cls-5, .cls-6, .cls-7, .cls-8, .cls-9 {
        fill: none;
        stroke: #000;
      }

      .cls-1, .cls-10, .cls-11, .cls-12, .cls-13, .cls-14, .cls-15, .cls-3, .cls-4, .cls-5, .cls-9 {
        stroke-miterlimit: 10;
      }

      .cls-13, .cls-15, .cls-2, .cls-5, .cls-6, .cls-7, .cls-8, .cls-9 {
        stroke-linecap: round;
      }

      .cls-2, .cls-6, .cls-7, .cls-8 {
        stroke-linejoin: round;
      }

      .cls-2 {
        stroke-width: 3px;
      }

      .cls-3, .cls-5, .cls-7 {
        stroke-width: 2px;
      }

      .cls-10, .cls-11, .cls-12, .cls-13, .cls-14, .cls-4, .cls-6, .cls-9 {
        stroke-width: 0.5px;
      }

      .cls-10 {
        stroke-dasharray: 12.94 0;
      }

      .cls-11 {
        stroke-dasharray: 12.63 0;
      }

      .cls-12, .cls-13 {
        stroke-dasharray: 13 0;
      }

      .cls-14 {
        stroke-dasharray: 94 0;
      }
    </style>
  </defs>
  <title>文章介紹</title>
  <path class="cls-1" d="M359.37,234.5c-1.6,4.67-10.24,9.67-37.79,8l-23.85-3.11-2.07,3.46h-24.2l-1.38-6.22s1.38-2.08-11.06-3.12S196.11,229,196.11,229s-7.64-2.38-7.44-5"/>
  <path class="cls-2" d="M188.67,224a2.21,2.21,0,0,1,1.22-1.58c4.84-3.11,99.89-6.57,147.24,1.72,0,0,18.32.7,21.44,5.19.91,1.32,1.69,1.71,1.47,4.32"/>
  <path class="cls-2" d="M393.2,473.7c2-6.58,6.74-25.64,3.39-44.93-4.15-23.85-29.38-53.58-29.38-78.46s-13-57.55-7.55-95.4c0,0,1.48-16.94.38-21.26"/>
  <path class="cls-3" d="M394.56,504.33l-2.12-28.21s.3-.86.76-2.42"/>
  <line class="cls-1" x1="394.6" y1="504.82" x2="394.56" y2="504.33"/>
  <path class="cls-2" d="M30.44,625.24c22.8,3.16,45.6,4.26,80.29-1.18,52.89-8.29,89.87-48,89.87-48s14.81-29.95,99.84-55.88"/>
  <path class="cls-2" d="M188.44,224.37s8.36,49.2,4.21,97.59-11.4,52.89-11.4,52.89-8.3,15.21-8.3,18.66S156,425,156,425s-42.51,51.5-47.7,59.45-16.93,10.71-16.93,10.71S35,513.8,22.59,520.71c-3.88,2.16-10.14,4.48-17.38,7"/>
  <path class="cls-4" d="M83.43,500s-2.77,21.43,14.51,66c0,0,10,25.93,31.8,46.66"/>
  <path class="cls-1" d="M274.16,316.09s-3.74,84.34-9.27,98.16-16.24,81.58-24.19,96.09-15.56,22.47-15.56,29.38l-9.42,17.09"/>
  <path class="cls-4" d="M290.82,269.42l-3.46,69.13-9.07,72.25s-6.48,53.92-18.24,87.44-22.84,40.8-34.23,37.69"/>
  <path class="cls-1" d="M392.44,476.12S394.51,487.88,361,500s-56,15.21-56,15.21-42.52,10-76.74,32.49-52.59,55.27-98.51,67.4c-29.29,7.75-65.11,9.41-102.37,4.48"/>
  <path class="cls-2" d="M300.44,520.14l-2,13.71s1.18,7.39,2.22,14.35"/>
  <path class="cls-1" d="M266.1,237.28v5.53s5.7,37.5,3.11,45.8"/>
  <path class="cls-1" d="M270.85,314.36a1037.49,1037.49,0,0,1-21.34,151.05s-10,44.07-23.69,61.7c0,0-5.22,19-8.85,27.43"/>
  <path class="cls-1" d="M313.78,245.05l-12.57-2.24s-4.52,6.57-4.52,18.32-4.14,71.2-4.14,71.2l-9.34,88.14s-10.37,76.39-21.77,84.69c0,0-12.77,34.56-17.59,32.54"/>
  <polygon class="cls-1" points="282.87 249.03 275.61 249.03 274.16 273.05 276.82 274.61 283.56 274.61 282.69 257.15 285.29 257.5 286.15 253.18 282.87 249.03"/>
  <line class="cls-1" x1="272.33" y1="310.21" x2="284.25" y2="310.21"/>
  <path class="cls-4" d="M191.44,230l3.63,1.73s71,2.94,71.9,5.53a22,22,0,0,0,2.24,4.67"/>
  <path class="cls-4" d="M359.66,238.51s-11.7,7.86-45.88,6.54"/>
  <path class="cls-1" d="M81.51,723.64c12.07,6.83,25.43,13.78,40.23,20.83C320.4,839.14,516.4,813.8,523.07,813.8c5.33,0,178.18-4.15,258.32-18.13"/>
  <path class="cls-4" d="M566.22,490l-15.58,24s-3.66,8.43,1.93,11.45,9.54,5.41,9.54,5.41a3.69,3.69,0,0,1,1.7,2.48c.15,1.57,0,5.69,4.35,7.9S575,544.9,575,544.9l1.89-3.63-5.65-3.54s-2.2-.84-.38-3.8a32.78,32.78,0,0,0,2.65-5.15"/>
  <path class="cls-5" d="M651.84,488.09,618.6,498.63S582,479.49,574.76,486.3c0,0-4.31-3.5-5.87-.46l-3,4.42"/>
  <line class="cls-2" x1="673.26" y1="481.29" x2="651.84" y2="488.09"/>
  <path class="cls-6" d="M573.86,487.84l-9.19,32.81s-1.88,3.76.49,5,44.32,15.85,44.32,15.85,5.26,3.59,6.89-5.31,5.37-31.24,5.37-31.24-.82-5.22-3.15-6"/>
  <path class="cls-4" d="M586.8,491.59s-4.2-2.36-5.5.54a54.37,54.37,0,0,0-2.1,5.51l-1.71.16L576.35,501s8.67,4.7,8.88,6.8,3.27,1,3.27,1,2.69.39,2.51-1.44-9-8.5-10.66-8.74"/>
  <path class="cls-4" d="M586.8,491.59s13.85.87,25.67,9.23c0,0,4.6,1,3.78,4.79s-5.85,25.06-5.85,25.06-.67,5.89-4.44,4.28-26-10.66-29.85-11.07-3.63-3.2-1.86-8.08,3.54-12.33,3.54-12.33"/>
  <path class="cls-1" d="M465.08,461.23c-4.33-.46-7.64-.4-9.5.36l-19.45,26.28-1.07,1.69,1.4-.14,2.32-1.46s38.58,7.05,110.94,33.76"/>
  <path class="cls-2" d="M515.84,473.51c-19.14-5.84-39.31-11.3-51.29-12.57"/>
  <path class="cls-7" d="M565.18,489.77s-23.76-8.46-49.34-16.26"/>
  <path class="cls-6" d="M572.25,492.59l-2.12-.58L554.7,514.89s-.12,4.11,1.7,6.45,8.76,4.29,8.76,4.29"/>
  <polygon class="cls-1" points="608.08 515.29 606.53 518.35 607.67 520.49 608.86 517.79 608.08 515.29"/>
  <path class="cls-1" d="M618.52,545.52l-5.34-2.81"/>
  <path class="cls-1" d="M624.37,548.57l-1.88-1"/>
  <line class="cls-6" x1="621.48" y1="506.49" x2="645.95" y2="521.52"/>
  <path class="cls-5" d="M677.68,490.43c3.45,8,10.71,25.65,11.68,34.4a26.42,26.42,0,0,0,2.56,7.84"/>
  <path class="cls-2" d="M673.07,481.36l2.49,1.69.32,3.28s.71,1.56,1.8,4.1"/>
  <path class="cls-2" d="M438,472a58.67,58.67,0,0,0,4.59-8.32c3.21-7.73,9.3-5.52,12.46-7.12,3.41-1.73,3.45,1.22,9.15,4.18"/>
  <path class="cls-8" d="M299.53,548.73c1.24-.22,2.48-.41,3.7-.57,7.83-1,18.5-5.54,23-8.63s14.9-7.3,14.9-7.3l3.64,2s28.82-24.3,42.09-26.67,39.59-17.16,41.11-20.49c1-2.27,6-8.75,10-15.1"/>
  <path class="cls-2" d="M164.81,639.2l-.63-.14,1.75-10.84,5.94-.59,2.22-2.61s2.51-28,33.08-43.64l3.56-6.83s3.36-4.32,5.21-3,11.45-8.68,28-10.32,35.57-1.67,39.14-5.73c3-3.43,9.75-5.53,16.49-6.73"/>
  <path class="cls-6" d="M524,635.81C467.5,646,437,656.49,397.19,657.61s-114.1,6-163.82-4.23c-44.6-9.19-64.86-13.41-68.56-14.18"/>
  <path class="cls-1" d="M206.47,582.77s-9.66,26.87-7.88,47.47"/>
  <path class="cls-1" d="M202.71,589s-22.13,5.17-18.28,38.67"/>
  <path class="cls-1" d="M282.6,557.75S264.83,588.1,264,595.33s-6.19,19,10.47,46.88l1.71-.17s-12-31.38-3.33-55.66l5.87-10.77,68.86-19.67s8.67,47,27.86,87.42l15.38-.65s-3-16.28-42.1-84.59"/>
  <path class="cls-1" d="M392.75,509.59s42.41,46.84,61.61,76.7S479.52,630,479.52,630s-54.64,13.18-88.74,12.68"/>
  <path class="cls-1" d="M432.67,488.56s-13.58,10.86-38.18,19-27.66,21.8-50.81,32.21c0,0-1.92.2,1.13-4.69"/>
  <path class="cls-1" d="M201.15,592.56s-14.53,4.53-11.54,36"/>
  <path class="cls-1" d="M585.47,534.65s-20,31.71-25.79,58.49c-.48,2.23-.94,4.26-1.37,6.12"/>
  <path class="cls-1" d="M532.27,622.43c-23.89,2.89-43.51,5.91-51.16,8.5"/>
  <path class="cls-1" d="M375.4,643.36s-86.78,5.78-125.46-2.56S187.26,628,175.7,626.19"/>
  <path class="cls-1" d="M445.33,497s69.51,36.31,92.56,52.52c0,0-23.68,36.19-21.94,59.05,0,0-33.8,6.17-36.47,5.95s-23-42.67-74.12-93.46l-3.66-3.6,6.07-6.83S428.44,494.89,445.33,497Z"/>
  <path class="cls-6" d="M673.07,481.81s-48.32,19.65-51.33,23.12"/>
  <path class="cls-9" d="M620.51,500.64s13.65-5.19,23-7.57"/>
  <path class="cls-4" d="M559.31,530.71s-19.74,18-26.12,32-15.48,36.05-14.13,46.15"/>
  <path class="cls-4" d="M539.12,610.63c-11.7,2.49-27.18,5.47-36.06,6a181.09,181.09,0,0,0-28.36,3.83"/>
  <path class="cls-4" d="M447.59,491.32s-12.1,4.31-19.28,6.73-17.76,5.94-28.24,17.74"/>
  <g>
    <path class="cls-4" d="M438,485.39l3.71-.37,2.69.65"/>
    <path class="cls-10" d="M444.36,485.67c13,3.13,69.78,17.13,99.17,29.55"/>
    <path class="cls-4" d="M543.53,515.22c2.13.9,4.12,1.79,5.93,2.67"/>
  </g>
  <g>
    <path class="cls-4" d="M453.26,464.72l5-.56s.49,0,1.48.16"/>
    <path class="cls-11" d="M459.72,464.32c7,.81,39.19,5.45,97.23,26.94"/>
    <path class="cls-4" d="M557,491.27l6.09,2.28"/>
  </g>
  <path class="cls-12" d="M675.9,487S634.34,499.52,625,508.68"/>
  <path class="cls-12" d="M278.25,561.4s-26.64,3.7-33.38,3.31-13.6-.06-27.23,8.35"/>
  <path class="cls-12" d="M215.72,573.25s-5.51,1.87-13.41,31c0,0-3.38,14.58-1.95,26.35"/>
  <path class="cls-12" d="M239.58,564.68s17.88,2.44,29,.21c0,0,5.1-1.77,8.92-3.39"/>
  <path class="cls-12" d="M348,553.93s-69.23,17.2-70.55,19.89"/>
  <path class="cls-12" d="M340.6,533.51s-2,2.13,6.31,19.14"/>
  <path class="cls-12" d="M343.42,541.53s2.51,8.44,4.74,14"/>
  <path class="cls-13" d="M345.61,539.54s31.72,53,36,63.85,13.5,32.9,11.21,38.24"/>
  <path class="cls-12" d="M283.66,575.12s-11.48,17.68-6.9,42.5l4.58,24.83"/>
  <path class="cls-12" d="M342.65,557.74s11.94,49.26,28.27,83.17"/>
  <path class="cls-13" d="M387.67,511.75s55.95,58.77,85.63,116.13"/>
  <path class="cls-12" d="M275.44,564.21S262.08,579,259.26,598.58s4.61,35.91,8.95,42.31"/>
  <path class="cls-12" d="M559.54,533S523.18,569.23,521,608.63"/>
  <path class="cls-12" d="M546.15,606.66c-8.63,1.31-21.76,3-28.58,2.3"/>
  <path class="cls-12" d="M590.28,536.92s-16.8,19.16-21.1,43.44c-.89,5-1.9,9.58-2.94,13.66"/>
  <path class="cls-12" d="M555.21,518.83s8,.91,9.46,1.82"/>
  <path class="cls-12" d="M573,520.49s13.44-1.1,36.62,12.83"/>
  <path class="cls-12" d="M580.33,494.45s14.11-2.43,35.56,12.77"/>
  <path class="cls-12" d="M623.56,542.39l-5.91-3.52"/>
  <path class="cls-12" d="M620.86,510.17l23.19,13.55"/>
  <line class="cls-12" x1="443.98" y1="494.15" x2="541.22" y2="545.8"/>
  <path class="cls-12" d="M198.37,619.55s-4.6-2.48-6.3,0a19.55,19.55,0,0,0-2.46,5.28"/>
  <path class="cls-2" d="M164.3,640.29l-2.25,16.37s7,3.54,48.66,12.91c38.81,8.72,78.37,18.24,180.07,10.53"/>
  <path class="cls-12" d="M401.1,669.62c-37.21,3.62-79.66,5.28-116.3,2.4-67-5.28-121.84-22-121.84-22"/>
  <path class="cls-14" d="M165.71,629.57s60.36,14.3,77.19,16.69,107.45,10.64,195.59-2c63.08-9,70.73-13.63,100-17.53"/>
  <path class="cls-1" d="M651.63,573.64q2-1.65,4.42-3.38c14.87-10.59,36.66,12.34,43.11,17,5.57,4,3,7.33,3,7.33-13.24,23.68-23.92,22.38-23.73,24.93s-1.49,3.64-5.39,4.25S642.08,600,642.08,600s-35.26,28.49-64.92,38-25.84,0-25.84,0c-13.88,2.83-3.24-6.78-3.24-6.78-16.69.8-8.49-5.73-8.49-5.73-13,2-8-2.78-8-2.78-14.82.48-6.64-4.27-6.64-4.27,46.27-23.66,71-47.54,71-47.54,19.39-30.75,33.24-30,33.24-30l29.42-34,11.93,9.87a27.69,27.69,0,0,1,16.61,23.42s-.18,12.89-11,28.13"/>
  <path class="cls-1" d="M640.44,598.39c-1.46-6.59-.72-13.39,7.63-21.57"/>
  <path class="cls-1" d="M700.74,595.1s-2.08-5.47-6.19-1.31S677.27,609.37,674.67,614s2.82,4.54,2.82,4.54"/>
  <path class="cls-1" d="M652.36,581.78c-3.89,5.4-4.55,11-4.17,13,.59,3.17,9.44,18.32,24.09,21.22"/>
  <path class="cls-1" d="M696.54,591.16s0-1.45-2.8-2.92-19.67-20.84-32-14.44a27.37,27.37,0,0,0-6.1,4.25"/>
  <path class="cls-1" d="M657.84,580.11c-.41-.57-1.06-1.43-1.84-2.36"/>
  <path class="cls-1" d="M654,583.71l.8.9s5.61,1.47,3.49-3.82c0,0-.17-.26-.48-.68"/>
  <path class="cls-1" d="M656,577.75c-2.25-2.7-5.57-6-7.29-4.19-2.61,2.7.3,4.56,5.32,10.15"/>
  <path class="cls-1" d="M654.26,583.43a17.66,17.66,0,0,0-2.79,4.36s-9,10.14,19.13,26.82"/>
  <path class="cls-1" d="M692.31,592.5s-14.65-18.06-25.9-16a20.59,20.59,0,0,0-8.8,3.78"/>
  <path class="cls-1" d="M678,623.71s30.3,23.25,35.09,23.54S750,638.31,753,635.34s3.71-5.68-8.22-12.14-42.83-26.42-42.83-26.42"/>
  <path class="cls-4" d="M681.39,618s28.86,21.33,32.57,21.75,28.14-7.35,29.1-10.21-24.34-12-43.26-29.93"/>
  <path class="cls-1" d="M655.94,513.14s30.93,13.51,25.11,31.94S669.18,568,669.18,568"/>
  <path class="cls-4" d="M648,521.72s27.67,9.84,21.3,25.37c-6.63,16.2-10.88,18-10.88,18"/>
  <path class="cls-1" d="M638.91,594.12s-19.06-16.91-35.81-21.79c0,0,0-20.57,25.24-26.58"/>
  <path class="cls-1" d="M627.55,546a223.7,223.7,0,0,1,30.54,20.54"/>
  <path class="cls-5" d="M627.55,546s-18.69,14.22-23.42,25.62"/>
  <path class="cls-4" d="M606.91,567.46s22.18,11.35,32,20.18"/>
  <path class="cls-4" d="M624,549.51s12.43,5,30.71,20"/>
  <path class="cls-1" d="M595.05,574.31s20.48,14.36,37.89,29"/>
  <path class="cls-1" d="M585,582.79s23.16,17.08,35.27,29.5"/>
  <path class="cls-1" d="M639.47,598.73s-12.72,11-18.16,13.78"/>
  <path class="cls-1" d="M633.21,592.21a39.66,39.66,0,0,1-5.26,4.1"/>
  <path class="cls-7" d="M873.1,525.06l-2.89.11,2.86,3.47s2.25,4.25-18.42,16.71c-18.14,10.95-40.37,25.51-77.71,23.76s-38.56-13.63-87.3-27.7"/>
  <path class="cls-7" d="M907.07,583.74c-8.6-27-18.62-61.93-34-58.68"/>
  <polyline class="cls-2" points="816.26 733.1 815.96 734.03 834.86 731.93"/>
  <path class="cls-1" d="M768.15,698.39c15.78-5.34,30.19-8.9,42.75-9l5.36,43.74"/>
  <path class="cls-2" d="M390.77,681.32a57.27,57.27,0,0,0-4.18,7.5s-3.73.65-4.17,2.71l-3.9,18.57s.81,8.07,26.12,14.11S510.39,749,592.53,749.37c62.37.3,125.84-34.15,175.62-51"/>
  <path class="cls-3" d="M537.29,629s-27.74,16.42-51.07,19.77c-21.84,3.14-72.9-1.44-95.45,32.59"/>
  <path class="cls-15" d="M521.06,637.59s11.29-1.6,10.24-.43S513.62,647,513.62,647s-7.55,4.07,6.52,6.22,41.75,8,81.37,3.11,95.91,11.82,111.66,39.37c0,0,59.63-24.89,89.07-27.86,18.59-1.87,52.73-7.21,78.48-11.4"/>
  <path class="cls-1" d="M518.53,640.44l-.29,1.38-19,8.85s-5.77,3.54,3,8.62,38.57,9.55,53.66,9.49,43.22-4,64.88.54,52,2.68,80.34,31.08"/>
  <path class="cls-1" d="M711.83,696.89s-51.14,23-89.59,26.94-105.93-2.16-142.22-8.9-89.2-15.53-92.1-24.75"/>
  <circle class="cls-1" cx="669.54" cy="589.81" r="2.06"/>
  <path class="cls-1" d="M674.19,624.88s-69.14,12-81.25,13.26"/>
  <path class="cls-4" d="M590.25,597.17s-30.2,24.89-47.34,27"/>
  <path class="cls-4" d="M596.55,602.45s-32.21,25.72-46,28"/>
  <path class="cls-4" d="M611.17,610.37s-24.52,19.26-42.91,24.73c0,0-18,1.24-.79,3.79"/>
  <path class="cls-1" d="M741.94,620.28s22.12.71,35.27,14.15,22.2,32.76,22.2,32.76"/>
  <path class="cls-9" d="M872.33,526.44s8.15-1.45,16,14.76-.88,19.56-.88,19.56l-29.38,30.45S844.78,605.1,839,632.44s-9.34,31.61-9.34,31.61"/>
  <path class="cls-1" d="M896.64,552.6s4.42,10.29-4.12,20.17S864,598,855.93,620.37a347.45,347.45,0,0,0-12.22,41.9"/>
  <path class="cls-1" d="M688.87,545.11s26.49,6.92,45.35,18.43"/>
  <path class="cls-4" d="M509.41,649.48s-5.3,5.53,16.9,8.4,37.45,6.26,72.73,2,88.55,7.13,110,36.42"/>
  <path class="cls-9" d="M753.41,631.49s-31.65,12.71-40.25,12-34.7-21.84-34.7-21.84"/>
  <path class="cls-2" d="M815,734s-19-13.87-42.92-15.31l-4.13-20.25"/>
  <path class="cls-9" d="M870.36,677.33c-30.8,4-73.31,10.06-84.34,13.4-15.15,4.58-35.15,10.06-71.42,25.42s-85.21,30.38-116.31,29.76a862.72,862.72,0,0,1-163.09-18.5s-49.83-8.5-55.71-19.8"/>
  <path class="cls-8" d="M691.92,532.66c-5.64-.06-6.27.3-6.27.3"/>
  <path class="cls-7" d="M869.81,525s-116.26,11.93-149.1,9.33c-15.26-1.2-23.91-1.58-28.79-1.64"/>
  <ellipse cx="506.32" cy="656.19" rx="0.35" ry="1.35" transform="translate(-240.02 1016.63) rotate(-78.12)"/>
  <circle cx="517.26" cy="660.37" r="0.79"/>
  <ellipse cx="531.96" cy="662.54" rx="1.02" ry="0.53" transform="translate(-284.42 427) rotate(-35.15)"/>
  <ellipse cx="538.47" cy="616.27" rx="1.02" ry="0.53" transform="translate(-256.59 422.32) rotate(-35.15)"/>
  <ellipse cx="545.48" cy="611.99" rx="1.02" ry="0.53" transform="translate(-252.85 425.57) rotate(-35.15)"/>
  <ellipse cx="543.74" cy="620.25" rx="1.02" ry="0.53" transform="matrix(0.82, -0.58, 0.58, 0.82, -257.92, 426.08)"/>
  <ellipse cx="550.74" cy="615.97" rx="1.02" ry="0.53" transform="translate(-254.18 429.33) rotate(-35.15)"/>
  <ellipse cx="551.09" cy="626.84" rx="1.02" ry="0.53" transform="translate(-219.62 306.46) rotate(-26.11)"/>
  <ellipse cx="558.68" cy="623.72" rx="1.02" ry="0.53" transform="translate(-217.47 309.48) rotate(-26.11)"/>
  <ellipse cx="557.45" cy="632.46" rx="1.02" ry="0.53" transform="translate(-221.44 309.84) rotate(-26.11)"/>
  <ellipse cx="564.81" cy="628.04" rx="1.02" ry="0.53" transform="translate(-218.74 312.62) rotate(-26.11)"/>
  <ellipse cx="594.87" cy="581.36" rx="1.02" ry="0.53" transform="translate(-226.21 448.42) rotate(-35.15)"/>
  <ellipse cx="602.34" cy="587.28" rx="1.02" ry="0.53" transform="translate(-228.26 453.8) rotate(-35.15)"/>
  <ellipse cx="656.27" cy="518.83" rx="1.02" ry="0.53" transform="translate(-179.03 472.37) rotate(-35.15)"/>
  <ellipse cx="663.67" cy="522.95" rx="1.02" ry="0.53" transform="translate(-180.04 477.37) rotate(-35.15)"/>
  <ellipse cx="670.05" cy="527.99" rx="1.02" ry="0.53" transform="translate(-181.78 481.97) rotate(-35.15)"/>
  <ellipse cx="675.32" cy="537.11" rx="1.02" ry="0.53" transform="translate(-186.07 486.66) rotate(-35.15)"/>
  <ellipse cx="673.78" cy="548.29" rx="1.02" ry="0.53" transform="translate(-192.79 487.82) rotate(-35.15)"/>
  <ellipse cx="667.27" cy="561.43" rx="1.02" ry="0.53" transform="matrix(0.82, -0.58, 0.58, 0.82, -201.54, 486.46)"/>
  <ellipse cx="609.8" cy="593.21" rx="1.02" ry="0.53" transform="translate(-230.31 459.17) rotate(-35.15)"/>
  <ellipse cx="617.26" cy="599.13" rx="1.02" ry="0.53" transform="translate(-232.36 464.55) rotate(-35.15)"/>
  <ellipse cx="624.72" cy="605.05" rx="1.02" ry="0.53" transform="translate(-234.41 469.92) rotate(-35.15)"/>
  <ellipse cx="548.11" cy="664.49" rx="1.02" ry="0.53" transform="translate(-282.59 436.66) rotate(-35.15)"/>
  <ellipse cx="564.56" cy="665.04" rx="1.02" ry="0.53" transform="translate(-279.91 446.22) rotate(-35.15)"/>
  <ellipse cx="579.44" cy="664.39" rx="1.02" ry="0.53" transform="translate(-276.82 454.67) rotate(-35.15)"/>
  <ellipse cx="597.94" cy="663.81" rx="1.02" ry="0.53" transform="translate(-273.11 465.22) rotate(-35.15)"/>
  <ellipse cx="613.59" cy="664.29" rx="1.02" ry="0.53" transform="translate(-270.54 474.31) rotate(-35.15)"/>
  <ellipse cx="632.65" cy="666.48" rx="1.02" ry="0.53" transform="translate(-268.33 485.69) rotate(-35.15)"/>
  <ellipse cx="648.3" cy="667.95" rx="1.02" ry="0.53" transform="translate(-266.32 494.96) rotate(-35.15)"/>
  <ellipse cx="664.95" cy="672.67" rx="1.02" ry="0.53" transform="translate(-266 505.41) rotate(-35.15)"/>
  <ellipse cx="678.78" cy="678" rx="1.02" ry="0.53" transform="translate(-266.55 514.34) rotate(-35.15)"/>
  <ellipse cx="841.8" cy="649.84" rx="1.02" ry="0.7" transform="translate(-127.58 1087.12) rotate(-61.95)"/>
  <ellipse cx="846.12" cy="632.85" rx="1.02" ry="0.7" transform="translate(-110.3 1081.93) rotate(-61.95)"/>
  <ellipse cx="852.02" cy="619.01" rx="1.02" ry="0.7" transform="translate(-94.96 1079.81) rotate(-61.95)"/>
  <ellipse cx="857.63" cy="606.01" rx="1.02" ry="0.7" transform="translate(-80.52 1077.88) rotate(-61.95)"/>
  <ellipse cx="864.5" cy="595.59" rx="1.02" ry="0.7" transform="translate(-67.68 1078.42) rotate(-61.95)"/>
  <ellipse cx="871.91" cy="587.63" rx="1.02" ry="0.7" transform="translate(-56.73 1080.75) rotate(-61.95)"/>
  <ellipse cx="879.73" cy="580.22" rx="1.02" ry="0.7" transform="translate(-46.05 1083.72) rotate(-61.95)"/>
  <ellipse cx="886.87" cy="573.47" rx="1.02" ry="0.7" transform="translate(-36.31 1086.45) rotate(-61.95)"/>
  <ellipse cx="892.32" cy="566.14" rx="1.02" ry="0.7" transform="translate(-26.95 1087.37) rotate(-61.95)"/>
  <ellipse cx="692.08" cy="685.85" rx="1.02" ry="0.53" transform="translate(-268.64 523.42) rotate(-35.15)"/>
  <ellipse cx="701.57" cy="695.13" rx="1.02" ry="0.53" transform="translate(-272.25 530.58) rotate(-35.15)"/>
  <path class="cls-15" d="M844.44,720.37c-14.63,1.89-24.07,3-29.31,3.5"/>
  <path class="cls-9" d="M850.19,712.41c-16.73,2.16-29.77,4.06-35.57,4.65"/>
  <path class="cls-9" d="M855.56,703.9c-19.44,2.64-35.68,4.77-42.21,5.44"/>
  <path class="cls-9" d="M860.68,693.89c-21.8,3-41.13,5.51-48.46,6.26"/>
  <path class="cls-9" d="M866.22,685.17c-23.8,3.16-47.18,6.07-55,6.88"/>
  <path class="cls-4" d="M651.6,594.82s7.43,3.53,11.61,7.56,10.49,10.28,10.49,10.28"/>
  <path class="cls-4" d="M643.94,604.74s-20.07,15.57-24.12,17.15-5,5-4.74,1c0,0-19,16.23-51.8,21,0,0-7,2.36-10.14-.47l-2.4-2.66"/>
  <path class="cls-9" d="M382.47,693.43s-1.47,4,14.67,7.93,76.86,19.13,140,24.6,87.85,3.38,124.25-5.79,82.23-38.85,141.19-47.72c0,0,41.76-4.44,75.52-9.78"/>
  <path class="cls-4" d="M790.12,666.93s-9.72-22-34.07-30.94"/>
  <path class="cls-4" d="M688,634.25s-92.68,16-120.58,11.48"/>
  <path class="cls-15" d="M874.7,668.21c-5.92.75-9.48,1.46-17.53,2.18-17.46,1.55-38.46,5.42-52.9,7-35.61,3.85-58.19,16.45-81.57,26.75a423.32,423.32,0,0,1-98.35,29.67c-19,3.28-34.91,3.52-78.37,1.3C460.32,727.74,402.11,711,402.11,711s-17.68-4.26-20.37-9.41"/>
  <path class="cls-1" d="M35,637.75c100,35,254,93,303,134.44h15.68l-10.45,5.34s126.33,38.22,227.66,31.11S766.49,798,766.49,798"/>
  <path class="cls-4" d="M191.44,226.51s-9.7-3.85,32.81-3.11,70.82-1.48,111.12,3.11l1.62.74a36.34,36.34,0,0,1,16.45,2.37c8.59,3.41,1.25,9.55,1.25,9.55"/>
  <path class="cls-12" d="M28.37,619.68q1.18,3.27,2.43,6.51"/>
  <path class="cls-12" d="M5.08,526.83a459.48,459.48,0,0,0,23.29,92.85"/>
  <path class="cls-12" d="M35.47,637.91a462.1,462.1,0,0,0,47.1,86.33"/>
  <path class="cls-12" d="M30.8,626.19q2.27,5.89,4.67,11.72"/>
  <line class="cls-2" x1="393.2" y1="473.7" x2="437.23" y2="473.12"/>
  <polyline class="cls-2" points="516.64 473.12 625.04 483.48 620.61 486.83 652.61 487.84"/>
  <line class="cls-8" x1="513.6" y1="472.83" x2="516.64" y2="473.12"/>
  <path class="cls-2" d="M678.4,490.81l98.34,14s3.81,7.78,17.44,9.33,70.66,7.43,78.15,10.72"/>
  <path class="cls-8" d="M282.87,249l5.38,1.63-1.26,6.6.37,4.56v23.85L286,309.87v4.49H270.85l.27-3.11s-3.12-9-1.39-15.21,2.77-30.42,2.77-30.42l-2.77-21.43"/>
  <circle class="cls-1" cx="462.16" cy="462.16" r="461.66"/>
</svg>
