<svg id="圖層_1" data-name="圖層 1" xmlns="http://www.w3.org/2000/svg" viewBox="0 0 281.67 295.22"><defs><style>.cls-1{fill:#ebeae5;}.cls-10,.cls-2,.cls-3,.cls-4,.cls-6,.cls-7,.cls-8,.cls-9{fill:none;stroke:#354b5e;}.cls-10,.cls-2,.cls-6,.cls-9{stroke-linecap:round;stroke-linejoin:round;}.cls-3,.cls-4,.cls-7,.cls-8{stroke-miterlimit:10;}.cls-3,.cls-9{stroke-width:0.5px;}.cls-5{fill:#354b5e;}.cls-6,.cls-7{stroke-width:0.75px;}.cls-10,.cls-8{stroke-width:0.25px;}</style></defs><path class="cls-1" d="M266.37,64.3,246.17,41l.21-.38-.24.36-4.63-5.36L215.42,17,186.67,6.49l-.66-1-.52.55-1.66-.61.15-.18-1.61-.35L172.73,1.4,163.19.5l-2.37.08s-26.39,17.15-39.9,32c-8.15,9-11.84,16.34-15.57,29.8l-2.66,8.52s-11.11,24.23,9.11,49.45l-4.63,4-26.92-20L76.85,101l1.79-2.92c-.44-1.48,1.92-4.39-2.8-7.17-3.46-2-16.55-10.14-24-14.46l-1.41-.81L26.74,57.31,12.08,80.67,1,111.6,0,114.19l11.91,5.65c6.85,3.82,13.1,8.38,11.06,10.6-3.54,3.86,4.5,6,4.5,6l8.14-.69c15.11,5.51,27.7,20,33.1,25.53,7.13,7.34,14.8,38.4,14.88,38.66C87.86,215.82,91,229.39,91,229.39s-.88,8,9.07,14.36,10.51,4.13,33.39,23.37c0,0,10.33,12.06,13.14,13.76s14.16,13.89,14.16,13.89l1.77-.92,15.86-4,1.54-.75c14.39,0,13.48-9.22,13.48-9.22l-11.15-24,.67-.25c3.59-2.39,4.34-3,6-7.57l.1-3.88.07-.05a.31.31,0,0,1-.06-.06v-.23s1-5.71-6.13-13.41c-3.24-3.49-7.18-7.18-10.53-10.2l-2.77-2.14.32-.56c2.94-2.17,2.92-21.24,2.92-21.24-.1-1-1.67-3.18-3.36-5.14h0a22.64,22.64,0,0,1,0-2.95c.07-2.88-7.88-6.53-7.88-6.53l-.79-.75-1.1-1.54c2.13-2.6-1.62-4.12-1.52-5.82s-8.72-16.49-9.84-18c-.87-1.15-7-2.65-9.77-3.28l-2.43-.35-7.87-17-.41-1.48,2.21,1.48L152.34,154a9.46,9.46,0,0,0,5.21,1.27c2.67-.28,17.45,0,17.45,0a.79.79,0,0,0,0,.95,1.44,1.44,0,0,0,.45.29h0a4.86,4.86,0,0,0,4.67-.44l.79.86s12.92-2.54,25.17,0,17.6-10.61,17.6-10.61l31.38-27.7,26.11-23.17.19-3ZM139.06,235.18l11.64,1.12,3.05,6.2,19.78,40.85-3.14-3.42L169.08,277l-4.38-5.95L157,264l-2.19-3.15-2.35-5.1-15.38-17.6Z"/><path class="cls-2" d="M76.85,101l3,2.84c1.13,1.15,27.08,20.48,27.08,20.48l5-3.54s-11.3-14.29-12.24-28.25,8.29-45.05,21.87-59.94S161.3.5,161.3.5"/><path class="cls-2" d="M35.25,135.5c3.25,1.7,5.18,2.47,5.18,2.47s27.71,16,34.12,32.42,16.47,59,16.47,59-1.77,7.91,8.22,14.31,10.56,4.13,33.56,23.37c0,0,10.37,12.07,13.19,13.76s14.23,13.89,14.23,13.89"/><path class="cls-3" d="M169.56,218.06c-2.91-2.54-5-4.24-5-4.24s-10-7.85-10.74-8.84-7.78-12.44-7.78-14.49-.35-10.4-1.76-13.86S138.17,158.32,128,147a99.77,99.77,0,0,0-23-18.38s-9.75-5.93-12.3-10"/><path class="cls-3" d="M188.71,244.06s-7.32-8.26-8.6-9.49c-1-.91-4.24-2.36-5.75-1.13s-9.76,8.91-9.85,10.32,5.36,9,9.13,12.5"/><path class="cls-2" d="M174.82,285.26c-2.6-5.16-21.63-42.94-23.93-49.27l-12.16-1-1.5,3.3s14.89,15.83,16.68,20.64,6.41,8.39,6.41,8.39,8.29,5.93,9.42,11.77l4.34,5.93.49.29"/><path class="cls-4" d="M178.79,289.05l-3.68-3.21-.29-.58"/><path class="cls-4" d="M181.81,255.77l11.21,24s1,9.52-14.23,9.22"/><path class="cls-5" d="M136.94,238.67s-10.58-10.86-10.75-11.39a2.77,2.77,0,0,1-.15-1.41c.07-.59,1.11-1.76,1.32-.65s-.69,1.52,0,2.33,7.55,8.1,9.74,10.62C137.44,238.56,136.94,238.67,136.94,238.67Z"/><path class="cls-5" d="M137.6,237.11c-.86-3.94-1.28-7.83.54-11.49,0,0,1-2.2.91.41-.08,2-.16,7.32-.39,9.93C138.58,236.83,137.6,237.11,137.6,237.11Z"/><path class="cls-6" d="M112.25,120.81a29.35,29.35,0,0,0,1.52,4.53c.15.32.1.47.5.3a26.19,26.19,0,0,0,3.68-2.37l-1.13-4.66s-7.77-11-9.19-16-4.1-32.8,7.07-49.2,2-13.72,40-42.27l11.42-8.94"/><path class="cls-3" d="M123.56,124.3s11.59,12.53,23.94,11.41,21.31,1,49-26.41"/><path class="cls-6" d="M150.39,189.46s-.76.34-2.17-2.63c-.7-1.47-2.32-7-2.13-8.53s-2.83-10.46-2.83-10.46L136,151.64l-.37-.83-7.24-16.05-.54-1.19-7.07-15.68h-1.5l-1.82,1.49"/><line class="cls-3" x1="119.23" y1="117.89" x2="140.09" y2="166.16"/><polyline class="cls-3" points="112.25 120.81 106.29 124.96 108.53 130.8"/><path class="cls-7" d="M169,191.08a19.42,19.42,0,0,1,0-3c.07-2.88-7.92-6.53-7.92-6.53l-10.52-9.91s-4.56-5-7.34-4.82"/><path class="cls-2" d="M136.58,151.91s10.08,2.08,11.21,3.59,10,16.3,9.89,18,3.67,3.21,1.52,5.81"/><path class="cls-4" d="M146.47,179.31c.56-7.48,6.56-2,7.05-1l2.55,2.59.9.68,5.7,4.88a2.93,2.93,0,0,1,2.45.68c1.5,1,7.07,7,7.26,9s.57,14.7-1.79,20.83l-1,1c3.73,3.27,8.87,7.95,12.93,12.29,7.21,7.71,6.16,13.41,6.16,13.41l-.11,4.22c-1.69,4.53-2.44,5.19-6,7.57l-1.42.53c-3.49.82-3.49.82-6.26.42-2.89-.22-8.28-4.1-8.28-4.1s-12.07-13.59-19.23-21.32-14.7-13.57-18.47-15.64-10-4.9-10-4.9l-10.18-3.77"/><path class="cls-3" d="M164.75,206.58s-3.77.85-5.47,0l-8.89-17.12"/><path class="cls-3" d="M161.3,134.15s-10.69,3.53-15.35,3.25-18.68-5-18.68-5"/><path class="cls-3" d="M174.5,155.25s1.27,2.09,2.12-5.27a50,50,0,0,0-1-15.07s-2.26-3.59-8.2-1.61"/><path class="cls-2" d="M127.93,133l23.81,21a9.46,9.46,0,0,0,5.23,1.27c2.69-.28,17.53,0,17.53,0s-.38.55,0,.95a4.63,4.63,0,0,0,5.15-.14l.79.85s13-2.54,25.29,0,17.69-10.6,17.69-10.6l31.52-27.71,26.23-23.17"/><path class="cls-3" d="M205.73,78.31s7.5-2.55,12.87-.71a126.44,126.44,0,0,1,12,5.09"/><path class="cls-8" d="M204.08,32s-7.22,3.76-10.17,1.67c-4.25-3-17.71-16.85-25.35-15.72s-1-7.49-1-7.49h1.63L174.8,4"/><path class="cls-9" d="M183.52,5.22l-9.44,11.17a65.69,65.69,0,0,0-6.65-2c-.85,0,9-10.72,9-10.72"/><path class="cls-3" d="M169.29,2.89,146.23,23S129,40.84,126,47.63s-13.58,23-12,40.72,6.79,29.42,24.32,37.11,36.68-2,49.51-11l6.75-5.19"/><path class="cls-5" d="M204.47,134.91c-4.8-8-5.37-25.6-5.37-25.6v-1.14s1.58-.51,5.37,1.14-2.22.91-3.11,2.91S201.7,128.48,204.47,134.91Z"/><path class="cls-3" d="M182.56,123.27s-2,7,.56,11.64"/><path class="cls-3" d="M198.11,109.31l-15.55,14s7-5.09,8.8-3.68,2.09,3,4.49,1.42a23,23,0,0,0,3.25-2.4"/><path class="cls-3" d="M179.71,155.8l.45-.28c4.1-2.66,0-22,0-22l-4.24.11"/><path class="cls-3" d="M164.62,88.35l-10.52-3s-3.63,1.56-4.77,7.36-1,11.39,3.16,14.56c0,0,7.44.14,9.56-1.41s6.51-1.14,6.36-11C168.42,94.85,168.26,89.37,164.62,88.35Z"/><path class="cls-9" d="M122.48,54.72s8.21.2,41.58,26.12"/><path class="cls-3" d="M128,44.24s9.26-.22,58.17,37.38"/><path class="cls-3" d="M202.07,22.15A3.35,3.35,0,0,0,203.34,20a5,5,0,0,0-.63-2.9,4.85,4.85,0,0,0-2.41-2.4,3.91,3.91,0,0,0-2.15,0l-.18,0a7,7,0,0,0-3.4,1.41,7.66,7.66,0,0,0-1,3.19,5.29,5.29,0,0,0,1,3.74,5.37,5.37,0,0,0,2.9,1.49l1.06-.43-.92-1.55-1-.53-.57-1.34s.56-2.52,2.47-2.22,4.38,5.23,4.38,5.23S220.12,48.75,227.18,50c0,0,2.78-1.46,3.2.1s-1.65,4.54-7.8,1.61c-7-3.36-20.48-21.54-24.15-27.75"/><path class="cls-5" d="M196.45,22l-.67-1-.43-1.69.43-1.42,1.55-1.06h2l1.35,1.61v1.75s-1.67-2.43-3.08-1.75S195.75,19.67,196.45,22Z"/><line class="cls-3" x1="215.95" y1="24.74" x2="208.34" y2="31.03"/><line class="cls-3" x1="213.8" y1="21.51" x2="205.91" y2="27.82"/><path class="cls-3" d="M209.37,30s24.55,20.41,30.43,11l1.52-3.32"/><path class="cls-3" d="M212.77,27.48a129.73,129.73,0,0,0,15.88,10.58c7.71,4.15,8.34.74,8.34.74l1.6-4.67"/><path class="cls-5" d="M210.69,17.06s.27-.36.65.16c1.6,2.15,8.84,13.09,9.3,15.94L213,27.48l3.09-2.54Z"/><path class="cls-3" d="M216.43,18.92s8.43,14.09,8.9,17.25"/><line class="cls-8" x1="231.84" y1="30.13" x2="227.18" y2="37.25"/><line class="cls-8" x1="224.98" y1="40.53" x2="221.1" y2="45.81"/><path class="cls-8" d="M218.68,48.67l-4.5,5.51a5.16,5.16,0,0,0,.32,6.64,93.8,93.8,0,0,0,6.83,7.66"/><path class="cls-3" d="M220.26,50.3l-3.72,5.09s-1.51,2.5,0,4.43S223.65,67,223.65,67"/><line class="cls-3" x1="233.3" y1="31.13" x2="228.65" y2="38.06"/><line class="cls-3" x1="226.6" y1="41.29" x2="222.58" y2="47.16"/><path class="cls-3" d="M225.77,49.49s.58-1.83,1.77-2.25a4.69,4.69,0,0,1,2.69-.33,3.51,3.51,0,0,1,2.21,1.76,5,5,0,0,1,.14,4c-.69,1.17-2.93,1.6-3.52,1.48-1.2-.22-2.61-.84-2.65-1.18"/><path class="cls-5" d="M227,49.72s1.45-2.15,2.47-1.7,2.53,1.4,2.42,2.49a3.78,3.78,0,0,1-.89,1.85,2.4,2.4,0,0,1-1.92.33,3.94,3.94,0,0,0,1.39-1.33,3,3,0,0,0-.19-1.75C230,49.13,228.15,49.76,227,49.72Z"/><path class="cls-8" d="M167.38,2.61S127.42,37.5,121.91,47s-16.54,30.3-10.46,48.53,13,31,28.78,35.25,28.33.38,44.73-12.2"/><path class="cls-8" d="M115.34,122.54l-1.5-2.87a73.49,73.49,0,0,1-11-24.88c-3-13.94,1.51-19.4,5.7-34.67s27.7-38,27.7-38L164,1.4"/><circle class="cls-5" cx="135.28" cy="54.66" r="0.95"/><circle class="cls-5" cx="145.12" cy="61.13" r="0.95"/><circle class="cls-5" cx="155.16" cy="68.55" r="0.95"/><circle class="cls-5" cx="164.45" cy="75.61" r="0.95"/><ellipse class="cls-5" cx="171.29" cy="80.67" rx="0.95" ry="0.6" transform="translate(-13.59 39.85) rotate(-12.77)"/><path class="cls-3" d="M220.82,114.08c-5.7.84-12.56-3.11-12.56-3.11l-4.63-2.08s-2.79-1.74-13.81-.61-25.83,4.43-36.95,1.41-10.93-18.76-3.11-24.6,15.65-4,37.5-3.2S207,74,215.92,70.86s14.89-9.33,17.53-10.27,5.09-4.71,5.09-4.71"/><path class="cls-3" d="M169.72,279.1s-1.14,2.26-1.91,2.45"/><path class="cls-3" d="M160.76,222.7s-9.59,8.67-10.06,9.7"/><path class="cls-2" d="M246.22,40.53s-6,9.06-9,10.57a4.61,4.61,0,0,0-2.4,4.87s.15,1.81,1.34,2.24"/><polygon class="cls-5" points="116.19 117.47 117.92 118.6 117.09 119.44 116.19 117.47"/><path class="cls-9" d="M185.57,5.46,174.8,16.81l.41.28s14.52,9.23,18.94,13.72c2.82,2.85,8.37-.37,8.37-.37"/><path class="cls-3" d="M217.1,47.5s-6.19,7.17-5.63,10.22,8.68,11.36,8.68,11.36"/><line class="cls-3" x1="219.76" y1="44.22" x2="223.31" y2="39.56"/><path class="cls-5" d="M225.68,36.17l4.57-7,.4-.64-1.24-.74-2.89,5.34a1.73,1.73,0,0,1-1.89.43C223.63,33.09,225.68,36.17,225.68,36.17Z"/><line class="cls-10" x1="213.3" y1="20.87" x2="205.43" y2="27.22"/><path class="cls-10" d="M202,29.35s-5.11,3.35-7.44,0-18.1-12.54-18.1-12.54L186,6.64"/><line class="cls-8" x1="234.91" y1="32.28" x2="230.25" y2="38.86"/><line class="cls-8" x1="228.3" y1="41.97" x2="223.76" y2="48.16"/><path class="cls-8" d="M221.73,51.2l-3.56,4.68a3.33,3.33,0,0,0,.74,4.29c2.22,2,6.07,6.14,6.07,6.14"/><path class="cls-8" d="M122.48,55.62S135.39,59.44,162.26,81"/><line class="cls-10" x1="128.77" y1="45.06" x2="123.99" y2="54.17"/><path class="cls-5" d="M266,65.89s-1.35-2.83-10.89-8.58c-8.1-4.88-15.21-5.22-17.36-4.7-.74.36-1.05.36-1.27,1.06a4.51,4.51,0,0,0-.45,1.39c.16.72.19,1.38.58,1.69s.62.64,1.24.48a9.22,9.22,0,0,1,1.7-1.52C252.36,53.05,266,65.89,266,65.89Z"/><path class="cls-5" d="M200,108.05l-2.52,0-17.65,16.25C174,129.13,165.41,133,165.41,133l-.11-.23-4.57,1.59s-.37,5.49-.69,6.83,1-.3,1.65-.76-.39-5.5-.39-5.5l4.38-1.85,1.75.51c3-1.92,7.63.68,7.63.68l5.1-.68,2-1.19c-1.23-2.32.51-7.85.43-9.57Z"/><polyline class="cls-10" points="115.39 116.81 116.29 118.92 117.06 122.66 113.84 124.84"/><path class="cls-5" d="M217.69,66.45s.94,3.36.35,3.6l1.72-1Z"/><polygon class="cls-5" points="197.47 24.66 201.77 29.39 198.45 24.13 197.47 24.66"/><path class="cls-5" d="M197.08,22.67s.65,1.37.39,1.68l.89-.3-.89-1.38Z"/><path class="cls-9" d="M172.51,3.69l-7.19,9.37c-3.33,4,.47,6.35.47,6.35l.74.26a9.25,9.25,0,0,0,2.12,0,4.67,4.67,0,0,1,3.22.38c1.09.67,4.87,1.34,12.4,7.84s7.73,7.22,10.09,8.28,8.76,0,10.77-2.51"/><path class="cls-10" d="M181.8,5.83l-8.05,9.28c-1.28-1-4.56-1.5-4.56-1.5L177.36,4"/><path class="cls-5" d="M185.78,29.2l5.84,7c.59.7,6.52,7.58,15-.6L205.2,33.8s-7,5.24-12.3,1.72C192.9,35.52,186.18,29.31,185.78,29.2Z"/><path class="cls-5" d="M209.76,32.75a2,2,0,0,1,1.56-1.05l-1.95-1.39-1,.72Z"/><path class="cls-5" d="M214.21,28.85s-2-1.07-2.67-.13-.22,3-.22,3l-1.69-1.58,1.7-1.71,1.39-.74Z"/><polygon class="cls-5" points="218.62 22.67 219.76 21.51 220.88 22.09 219.41 24.05 218.62 22.67"/><path class="cls-5" d="M221.9,38.75a2.3,2.3,0,0,1,.37,2.36l-1.39-1.86-2.82-2.75Z"/><path class="cls-5" d="M127.81,214.86l-7.49,2.68s-3.24-.85-3.14,1.14c.06,1.25,2.24-.27,3.06-.69,1.92-.69,7-2.42,7-1.64.08,1-8.63,12-8.81,12.48a.5.5,0,0,0,.29.65c4.07-3.21,10.75-13.67,10.75-13.67S128.82,215.38,127.81,214.86Z"/><path class="cls-5" d="M147.89,231.71s.59,3.55-.21,4,3,0,3,0v-.43Z"/><path class="cls-9" d="M162,186.83s-2.55,4.11-5.89,1.56-8.81-9.08-8.81-9.08"/><path class="cls-5" d="M128.34,128.87a11.34,11.34,0,0,0-.28,3.51h-.54l-2.89-6.67Z"/><path class="cls-10" d="M164,89.06s-7,7.77,1.46,13.66"/><path class="cls-10" d="M154.1,85.37S148,85,147.32,97.61c-.5,9.65,5.17,9.68,5.17,9.68"/><path class="cls-10" d="M175.92,134.14s2,2.73,1.69,15.62c0,0-.65,5.7-2.66,6.74"/><path class="cls-5" d="M159.17,206.71l1.94,4.35s-.31-2.41,1.32-3.08a12.36,12.36,0,0,0,2.32-1.17Z"/><path class="cls-8" d="M179.84,234.35s-3.82-3.26-5.71-1.95-10.66,9.32-10.55,10.66,3.38,5.25,3.38,5.25"/><path class="cls-8" d="M166.58,247.5s14.13,1.14,13.9-12.55"/><path class="cls-2" d="M46.13,73.8S71.47,88.32,76.21,91.09s1.92,5.63,2.37,7.11-31.7,41.34-52.3,38.23c0,0-6.66-1.77-3.11-5.63S1,114.8,1,114.8"/><path class="cls-2" d="M50.73,76.44S45,70.15,42.58,69.51s-15.72-12.2-15.72-12.2"/></svg>