<svg id="圖層_1" data-name="圖層 1" xmlns="http://www.w3.org/2000/svg" viewBox="0 0 292.44 191.27"><defs><style>.cls-1{fill:#ebeae5;}.cls-10,.cls-11,.cls-13,.cls-14,.cls-15,.cls-16,.cls-17,.cls-18,.cls-19,.cls-2,.cls-21,.cls-26,.cls-27,.cls-3,.cls-4,.cls-5,.cls-6,.cls-9{fill:none;}.cls-10,.cls-11,.cls-13,.cls-14,.cls-15,.cls-16,.cls-17,.cls-18,.cls-19,.cls-2,.cls-20,.cls-21,.cls-22,.cls-23,.cls-24,.cls-25,.cls-26,.cls-27,.cls-3,.cls-4,.cls-5,.cls-6,.cls-7,.cls-8,.cls-9{stroke:#354b5e;}.cls-10,.cls-11,.cls-13,.cls-14,.cls-15,.cls-16,.cls-18,.cls-2,.cls-20,.cls-21,.cls-23,.cls-24,.cls-26,.cls-27,.cls-5,.cls-7,.cls-8,.cls-9{stroke-linecap:round;}.cls-10,.cls-13,.cls-14,.cls-15,.cls-16,.cls-18,.cls-19,.cls-2,.cls-20,.cls-23,.cls-24,.cls-27,.cls-5,.cls-7,.cls-8,.cls-9{stroke-linejoin:round;}.cls-16,.cls-18,.cls-19,.cls-2,.cls-23,.cls-25,.cls-26,.cls-6,.cls-8{stroke-width:0.5px;}.cls-11,.cls-17,.cls-21,.cls-22,.cls-25,.cls-26,.cls-3,.cls-4,.cls-6{stroke-miterlimit:10;}.cls-10,.cls-11,.cls-20,.cls-22,.cls-24,.cls-3{stroke-width:0.75px;}.cls-13,.cls-14,.cls-15,.cls-17,.cls-21,.cls-27,.cls-4,.cls-5{stroke-width:0.25px;}.cls-12,.cls-20,.cls-7,.cls-8{fill:#354b5e;}.cls-13{stroke-dasharray:12.94 0;}.cls-14{stroke-dasharray:12.63 0;}.cls-15,.cls-16,.cls-17{stroke-dasharray:13 0;}.cls-18,.cls-27{stroke-dasharray:94 0;}.cls-19{stroke-linecap:square;}</style></defs><path class="cls-1" d="M.18,100.66C1.8,116.15,4,132,9,146.84l.79-.18c17.83-4.27,31.4-14.32,32.15-17.2,1.12-4.25,11.07-9.61,11.07-9.61l8.74-4,13,2.21,1.39,2.14-4.28,1.34-2.42,1.61-10.37,1.22-6,1-6,3.22c-3.16-.59-4,3.85-4,3.85-11.92,6.21-10.65,15-10.65,15l-2.64,1-.37.77s-1.69,9.09-.85,9.35c33.61,10.4,80.05,8.19,80.05,8.19l-1.49,3.09-1.48,1-1.38,6.57,2.08,2.89c20.17,8,68,11.7,78.71,11S242,173.76,242,173.76l2,7.16c6.19-1.11,15.33,5.74,15.33,5.74l8.07-1.27a216.38,216.38,0,0,0,24-53.54l-2.79-7.2V123l-1-2.93-4.64-7.55-3.44-1-49.56,3.66-14.56-.72-5.8-17.58-1.05-.6-19.38,5.31c-11.54-4.69-15.06-3.73-15.06-3.73l-1.61-1.12-2.18,2.46-36.67-11L131.78,86l-3.23,1.12-6.69,11.18L110,103.82l-.69-9.15,1-1.93,1.47-9-1.15-10.79L101.24,51l-1.3-11.91c-3.42-18.37-1.32-27.28-1.32-27.28l.2-4.94L98.33,4.5C81.1-2.16,40.17,1.69,40.17,1.69L37.63,3.56C42,48.42,36.4,54.37,36.4,54.37L28.1,71.32,22,79.64,8.17,96.92.53,100Zm152.43,37.91-13.13,2.27s-20.67-28.46-26.93-31.94l3-4.29,9.9-3.31,2.86.43s31.59,17.28,32.39,18.58C160.66,120.31,151.3,131.71,152.61,138.57Z"/><path class="cls-2" d="M99.34,5.7c-.56,1.65-4.31,5.13-14,4.54l-8.47,0-.73,1.22H67.63l-.48-2.2s.26-2.53-3.89-1.11c-4.66,1.6-25.39-2-25.14-4.9"/><line class="cls-3" x1="110.53" y1="104.24" x2="110.52" y2="104.07"/><path class="cls-2" d="M10.87,146.33c18.26-3.23,30.94-16.86,30.94-16.86s5.25-10.61,35.37-19.79"/><path class="cls-2" d="M.31,100.66s-1,7.94,5.14,24.46c0,0,3.91,10.4,11.63,18.08"/><path class="cls-4" d="M67.87,37.39s-1.33,29.87-3.28,34.77-5.76,28.89-8.57,34-5.52,8-5.52,10.41l-3.33,6.05"/><path class="cls-5" d="M73.77,20.85,72.54,45.34,69.33,70.93S67,90,62.87,101.91s-8.09,14.45-12.12,13.35"/><path class="cls-6" d="M109.77,94.07s.73,4.17-11.14,8.46a108.49,108.49,0,0,1-19.84,5.39s-15.06,3.54-27.18,11.51S33,139,16.72,143.3q-3.18.84-6.62,1.41"/><path class="cls-7" d="M77.64,109.36l-15.38,6.13,15.44,4Z"/><path class="cls-2" d="M65,9.47v2A89.48,89.48,0,0,1,66.3,30.28"/><path class="cls-6" d="M66.7,36.77a368.41,368.41,0,0,1-7.56,53.51s-3.54,15.61-8.39,21.85c0,0-1.85,6.73-3.14,9.72"/><polygon class="cls-5" points="70.69 13.63 68.38 13.63 67.87 22.14 68.33 22.72 70.77 22.54 70.89 16.51 71.81 16.63 72.12 15.1 70.69 13.63"/><polygon class="cls-8" points="67.06 35.3 69.99 35.3 69.99 33.6 66.7 33.6 67.06 35.3"/><path class="cls-5" d="M38.78,5.46c-.7,2.64,25.42,5.75,26.31,4.23a10,10,0,0,0,1,1.83"/><path class="cls-2" d="M99.34,7.34c.38.09-1.53,5.21-16.32,4.1H77.45a12.17,12.17,0,0,0-1.6,6.49c0,4.16-1.47,25.22-1.47,25.22L71.07,74.36s-3.67,27.06-7.71,30c0,0-3.31,10.36-6.21,11.8"/><path class="cls-2" d="M171.21,98.67a42.55,42.55,0,0,0-5.73,7.35,5.31,5.31,0,0,0,1,5.35,10.11,10.11,0,0,0,3.41,2.09,1.37,1.37,0,0,1,.6.88,3,3,0,0,0,1.54,2.8,6,6,0,0,0,3.23.52l.31-.82-2.45-.94s-.78-.3-.13-1.35a12.53,12.53,0,0,0,.94-1.82"/><path class="cls-9" d="M209.24,95.9l-7.59,1.86s-6.59,2-10.66,3.32l-1.37.16s-12.71-6-15.27-3.56c0,0-1.37-1.8-1.92-.72l-.81.78-.85,1.11s-5.47-2-14.53-4.79l-2.76-.91c-6.78-2.07-13.93-4-18.17-4.45l-1.21-.82c-2-1-.95-2.44-2.16-1.83s-3.27-.21-4.41,2.52a20.6,20.6,0,0,1-1.62,3l-.75,1.39"/><path class="cls-2" d="M174,98.22l-3.26,11.63s-.66,1.33.18,1.77,15.7,5.61,15.7,5.61,1.86,1.27,2.44-1.88,1.9-11.07,1.9-11.07-.42-2.47-1.24-2.75"/><path class="cls-8" d="M176.67,99.74c.46-1,1.94-.19,1.94-.19l.42.15a17.73,17.73,0,0,1,8.68,3.12s1.63.36,1.34,1.7S187,113.4,187,113.4l1.37-8.72a21.68,21.68,0,0,0-11.75-4.22C175.77,102.56,174.82,103.22,176.67,99.74Z"/><path class="cls-6" d="M135.5,88.8a8,8,0,0,0-3.37.13l-6.89,9.3-.38.6.5,0,.82-.51s13.67,2.49,39.3,12"/><path class="cls-2" d="M173,100.37l-.38-.73-5.5,7.68a6.53,6.53,0,0,0,.78,2.77c.64.83,3.1,1.52,3.1,1.52"/><polygon class="cls-10" points="186.15 107.95 185.6 109.03 186.01 109.79 186.43 108.83 186.15 107.95"/><path class="cls-3" d="M189.85,118.66l-1.89-1"/><path class="cls-2" d="M190.9,104.83c3.08,1.79,5.59,4.06,8.67,5.32"/><path class="cls-11" d="M210.81,99.14c1.22,2.84,3.79,9.09,4.13,12.19a9.39,9.39,0,0,0,.91,2.77"/><path class="cls-10" d="M209.17,95.93l.88.6.12,1.16s.25.55.64,1.45"/><path class="cls-5" d="M156.37,150.64c-20,3.61-30.82,7.32-44.92,7.72s-40.42,2.13-58-1.5c-15.8-3.25-23-4.75-24.29-5"/><path class="cls-2" d="M43.89,131.85s-3.42,9.52-2.79,16.82"/><path class="cls-2" d="M42.93,134.37s-8.21,1.52-6.85,13.39"/><path class="cls-2" d="M70.86,123s-6.3,10.75-6.59,13.31S62.08,143,68,152.91l.6-.06s-4.25-11.12-1.18-19.72l2.08-3.82,24.4-7s3.84,16.61,10.63,30.93l4.68-.2s-1.06-5.76-14.91-30"/><path class="cls-2" d="M109.88,105.93s15,16.59,21.82,27.17,8.91,15.48,8.91,15.48-19.35,4.67-31.43,4.49"/><path class="cls-2" d="M124.86,98.83s-.6-.61-7.48,4.66l-5.3,4.36-2-2.19h-2s-11.18,8.66-12.74,9.64a10.26,10.26,0,0,1-2.49,1.24"/><path class="cls-10" d="M175.55,117.91a42.83,42.83,0,0,0-6.08,15c-.17.79-.74,3.88-.9,4.54"/><path class="cls-2" d="M158.61,146.11c-8.46,1-15.39,1.32-18.1,2.24"/><path class="cls-6" d="M104.51,153.28s-31.37,1.26-45.22-.87c-14.68-2.26-22.72-4.35-26.82-5"/><path class="cls-10" d="M128.5,101.47s24.62,12.86,32.79,18.6c0,0-9,10.23-8.34,18.33,0,0-12,2.19-12.92,2.11S132.45,128,114.34,110l-1.29-1.27,2.15-2.42S122.52,100.72,128.5,101.47Z"/><path class="cls-2" d="M209.17,96.09s-17.11,7-18.18,8.19"/><path class="cls-10" d="M168.32,137.74c-4.7,1.66-13.29,1.94-18.76,3.35-3.38.19-7.83,1.47-11.14,2.19"/><path class="cls-12" d="M112.7,109.11a23.44,23.44,0,0,1,9.78-7c2.54-.86,9.93-2.32,9.93-2.32l-1.09-.51-9.59,1.06-5.29,4-.75.55-3.81,3.3Z"/><path class="cls-13" d="M125.82,97.46,127,97.2l1.2.26c4.6,1.1,24.72,6.06,35.13,10.46l2.1,1"/><path class="cls-14" d="M131.32,90l.83-.25,1.45.12c2.48.29,13.88,1.93,34.44,9.55l1.59.57"/><path class="cls-15" d="M210.17,97.93s-14.72,4.43-18,7.68"/><path class="cls-16" d="M69,124.28s-9.13,1.31-11.52,1.17-4.81,0-9.64,3"/><path class="cls-15" d="M47.61,128.21s-2.39.93-5.19,11.25a32,32,0,0,0-.69,9.33"/><path class="cls-15" d="M93.64,121.63s-24.71,6.22-25.23,7.71"/><path class="cls-16" d="M91.4,114.4s-.7.76,2.24,6.78"/><path class="cls-16" d="M92.4,116.54a54.83,54.83,0,0,0,1.68,5.66"/><path class="cls-15" d="M93.18,116.54s11.23,18.77,12.75,22.61,4.78,11.66,4,13.55"/><path class="cls-15" d="M71.23,129.14a22.17,22.17,0,0,0-2.44,15.06L70.41,153"/><path class="cls-15" d="M92.66,122.88c-.5.37,3.59,18.7,10.09,30.2"/><path class="cls-15" d="M108.08,106.69s19.82,20.82,30.33,41.14"/><path class="cls-15" d="M69.14,124.44s-5.55,6.08-6.55,13a22.48,22.48,0,0,0,3.17,15"/><path class="cls-4" d="M164.76,138.31a94.64,94.64,0,0,1-10.08,1.63l-.27-2c-.48-3.58,3-8.28,5.21-13.24s9.26-11.33,9.26-11.33"/><path class="cls-15" d="M179.52,115a43.82,43.82,0,0,0-9.31,21.58"/><path class="cls-17" d="M167.42,109.2a6.3,6.3,0,0,0,3.35.65"/><path class="cls-12" d="M173.24,109.4s5.19-.33,13.82,5.23c0,0-.36,1.38-2.43.18a73.87,73.87,0,0,0-10.82-4.06c-1.41-.3-.66-1.13-.66-1.13Z"/><path class="cls-17" d="M190.9,117.65c-1-.6-1.31-.12-2-1.23"/><path class="cls-17" d="M190.42,106.37c3.27,2.28,5.8,4,8.22,4.8"/><path class="cls-17" d="M162.83,119.84c-11.56-7.73-21.72-14.16-33.53-19.26l-.85-.21-1.67.07"/><path class="cls-10" d="M109.18,166.33c-36,1-45.79-1.47-62.76-4.21-14.76-3.32-17.29-4-17.29-4v-2.83l.23-3.57.78-3.67,1.5-.33,1.35-.47s-.17-9.67,10.65-15.21l1.76-3.12s1.19-1.53,1.85-1.06,4-3.08,9.91-3.66,12.6-.59,13.87-2c1.06-1.21,3.45-2,5.84-2.38l.17,0c.44-.08.69-.11,1.13-.17a22.66,22.66,0,0,0,8.14-3.06A39.15,39.15,0,0,1,91.59,114l1.29.71s9.38-7.74,13.87-9.35c4.9-1.75,15.2-6.8,15.6-7.36a37.61,37.61,0,0,1,2.55-4.67"/><path class="cls-17" d="M112.83,162.61c-13.18,1.29-28.21,1.88-41.19.85a198,198,0,0,1-42.51-8.15"/><path class="cls-18" d="M161.08,148.23c-10.37,1.38-12,3-34.3,6.21-31.22,4.47-64,.75-70-.1S31.23,149,31.23,149l-.87-.33.4-.54"/><path class="cls-2" d="M198.2,138c-1.54-1.71-2.59-3.89.26-7.5l2.18-2.3c.47-.39,1.21-1.12,1.78-1.53,5.6-3.44,13.71,5.17,16,6.82,2,1.42,1.07,2.6,1.07,2.6-4.69,8.39-8.48,7.92-8.41,8.83s-.61,1-1.91,1.5c-2,.81-9.89-6.78-10.87-8.24Z"/><path class="cls-2" d="M219,136.22s-.73-1.94-2.19-.47-6.12,5.52-7,7.16,1,1.61,1,1.61"/><path class="cls-2" d="M201.67,131.74a6,6,0,0,0-1.31,4.36c.21,1.13,3.34,6.49,8.53,7.52"/><path class="cls-2" d="M217.49,134.82s0-.51-1-1-7-7.38-11.33-5.12a7.65,7.65,0,0,0-1.9,1.4"/><path class="cls-2" d="M203.78,130.91c-.15-.2-.38-.51-.65-.84"/><path class="cls-2" d="M202.42,132.18l.28.32s2,.52,1.24-1.35l-.17-.24"/><path class="cls-2" d="M203.13,130.07c-.8-.95-1.24-1-1.85-.33-.92,1-.63.46,1.15,2.44"/><path class="cls-5" d="M200.62,136.81a24,24,0,0,1,3.16,1.76c.36.37,1.35,2,1.86,2.47a17,17,0,0,0,3.85,2.67"/><path class="cls-5" d="M216.49,135.69s-7.46-7.48-11.44-6.75"/><path class="cls-2" d="M210.29,146.16s3,2,6,4.07,6.19,4.41,7,4.46c1.7.1,11.76-3.32,13.1-4a19.28,19.28,0,0,0,2.45-1.22c.18-.31-.19-.41-.58-.7-.85-.64-6-2.92-8-4.26-4-2.66-10.93-7.71-10.93-7.71"/><path class="cls-5" d="M212.12,144.33s10.22,7.56,11.54,7.7,10-2.6,10.3-3.61-8.62-4.25-15.32-10.6"/><path class="cls-5" d="M202,107.36s12.07,4.61,10,11.14-3.78,7.7-3.78,7.7"/><path class="cls-5" d="M200.29,109.79s10.19,4.06,7.93,9.56c-2.35,5.74-3.8,6.54-3.8,6.54"/><path class="cls-19" d="M193.23,119a70.23,70.23,0,0,1,10.22,6.87"/><path class="cls-5" d="M185.06,126.43s8.13,3.61,11.61,6.73"/><path class="cls-5" d="M191.53,119.63s3.94,1.74,10.42,7.05"/><path class="cls-5" d="M180.43,128c1.14,1.84,8.49,7.44,15.48,12.11"/><path class="cls-5" d="M177.1,130.49c2.58,3,9.49,10,14.41,12.64"/><path class="cls-5" d="M198.57,138.5s-3,2.17-7.06,4.63"/><path class="cls-5" d="M196.46,135.61a15.34,15.34,0,0,1-3.22,2.63"/><path class="cls-10" d="M292.06,132.19c-1-3.05-3.12-6.24-3-9.55a7.67,7.67,0,0,0-.83-2.54c-2.18-5.79-4.72-9.64-8.73-8.86l-1.55.33s-40.25,4-51.88,3.12c-5.41-.42-8.47-.56-10.2-.58"/><polyline class="cls-10" points="259.89 185.1 259.79 185.43 266.48 184.69"/><path class="cls-20" d="M242.85,172.8l1.47,7.17a32,32,0,0,1,15.2,5.43l.44-.31-1.89-15.5c-4.45,0-9.56,1.3-15.15,3.19Z"/><path class="cls-10" d="M109.18,166.76a20.35,20.35,0,0,0-1.49,2.66s-1.32.23-1.47,1L104.84,177s.28,2.86,9.25,5,37.46,8.78,66.55,8.91c22.07.11,44.52-12.06,62.14-18l.07,0"/><path class="cls-10" d="M161.08,148.23s-9.83,5.81-18.09,7c-7.74,1.11-25.83-.51-33.81,11.54"/><path class="cls-5" d="M155.33,151.27s4-.57,3.62-.15-6.26,3.48-6.26,3.48S150,156,155,156.81s14.79,2.83,28.82,1.1,34.09,4.37,39.67,14.13c0,0,21-9,31.44-10.06,6.58-.66,18.68-2.55,27.8-4"/><path class="cls-5" d="M154.49,152l-.16.8-6.73,3.13s-2,1.26,1.06,3.06,13.66,3.38,19,3.36,15.31-1.42,23,.19,18.42,1,28.46,11l.21.27,5-2.09"/><circle class="cls-12" cx="207.92" cy="134.34" r="0.73"/><circle class="cls-12" cx="212.99" cy="138.73" r="0.73"/><path class="cls-2" d="M211.93,147.26s-28.76,3.76-33.05,4.2"/><path class="cls-12" d="M160.91,146.77c5.83,0,16.19-7.64,16.19-7.64a17.39,17.39,0,0,1-2,2.3C170.21,140.51,162.89,148.67,160.91,146.77Z"/><path class="cls-6" d="M231.12,145s10.28.38,14.94,5.14,7.79,12,7.79,12"/><path class="cls-21" d="M279.32,112.42s3.32-1,6.1,4.71-.31,6.92-.31,6.92L274.7,134.84s-4.7,4.92-6.75,14.6-3.31,11.2-3.31,11.2"/><path class="cls-21" d="M278.52,112.42s3.33-1,6.11,4.71-.32,6.92-.32,6.92l-10.4,10.79s-4.71,4.92-6.76,14.6-3.31,11.2-3.31,11.2"/><path class="cls-4" d="M288.37,121.16a7.1,7.1,0,0,1-1.46,7.15c-3,3.5-10.11,8.94-13,16.86A121.7,121.7,0,0,0,269.62,160"/><path class="cls-5" d="M214.68,119s9.47,2,16.15,6.09"/><path class="cls-4" d="M152.18,155s-2.24,2.07,5.63,3.08,13.31,2.11,25.76.71c12-1.35,31.53,2.42,39,12.9l.36.57s-18.11,8.15-31.73,9.55-37.53-.77-50.38-3.16-31.6-5.5-32.62-8.76"/><path class="cls-5" d="M238.41,149.08a129.28,129.28,0,0,1-12.75,4.37,10.12,10.12,0,0,1-2.26.54c-3.65-2.29-8.18-5.25-12.32-8.37"/><path class="cls-21" d="M279.06,165.35c-10.91,1.41-26,3.56-29.88,4.74a209.65,209.65,0,0,0-25.3,9c-12.84,5.44-30.18,10.76-41.2,10.54a305.81,305.81,0,0,1-57.77-6.55s-17.65-3-19.73-7"/><path class="cls-5" d="M216,114.4c-2-.05-1.72-.59-1.72-.59"/><ellipse class="cls-22" cx="150.12" cy="157.88" rx="0.12" ry="0.48" transform="translate(-35.28 272.27) rotate(-78.12)"/><circle class="cls-22" cx="153.98" cy="159.34" r="0.28"/><ellipse class="cls-22" cx="159.19" cy="160.08" rx="0.36" ry="0.19" transform="matrix(0.82, -0.58, 0.58, 0.82, -63.13, 120.84)"/><ellipse class="cls-12" cx="180.62" cy="131.52" rx="0.74" ry="0.35" transform="translate(-42.81 130.65) rotate(-35.84)"/><ellipse class="cls-12" cx="183.14" cy="133.52" rx="0.74" ry="0.35" transform="translate(-43.5 132.51) rotate(-35.84)"/><ellipse class="cls-12" cx="185.93" cy="135.69" rx="0.74" ry="0.35" transform="matrix(0.81, -0.59, 0.59, 0.81, -44.24, 134.55)"/><ellipse class="cls-12" cx="189.54" cy="138.24" rx="0.74" ry="0.35" transform="translate(-45.06 137.15) rotate(-35.84)"/><ellipse class="cls-12" cx="192.81" cy="140.67" rx="0.74" ry="0.35" transform="translate(-45.86 139.52) rotate(-35.84)"/><ellipse class="cls-22" cx="203.22" cy="109.18" rx="0.36" ry="0.19" transform="translate(-25.8 136.91) rotate(-35.15)"/><ellipse class="cls-22" cx="205.85" cy="110.63" rx="0.36" ry="0.19" transform="translate(-26.16 138.68) rotate(-35.15)"/><ellipse class="cls-22" cx="208.11" cy="112.42" rx="0.36" ry="0.19" transform="translate(-26.77 140.31) rotate(-35.15)"/><ellipse class="cls-22" cx="210.16" cy="116.59" rx="0.12" ry="0.06" transform="translate(-28.8 142.25) rotate(-35.15)"/><ellipse class="cls-22" cx="215.85" cy="120.96" rx="0.12" ry="0.06" transform="translate(-30.28 146.33) rotate(-35.15)"/><ellipse class="cls-22" cx="214.26" cy="124.32" rx="0.12" ry="0.06" transform="translate(-32.51 146.02) rotate(-35.15)"/><ellipse class="cls-23" cx="209.74" cy="120.7" rx="0.36" ry="0.19" transform="translate(-31.24 142.76) rotate(-35.15)"/><ellipse class="cls-23" cx="207.79" cy="123.98" rx="0.36" ry="0.19" transform="translate(-33.45 142.75) rotate(-35.27)"/><ellipse class="cls-22" cx="164.92" cy="160.77" rx="0.36" ry="0.19" transform="translate(-62.49 124.26) rotate(-35.15)"/><ellipse class="cls-22" cx="170.74" cy="160.96" rx="0.36" ry="0.19" transform="translate(-61.54 127.65) rotate(-35.15)"/><ellipse class="cls-24" cx="176.01" cy="160.73" rx="0.36" ry="0.19" transform="translate(-60.44 130.64) rotate(-35.15)"/><ellipse class="cls-24" cx="182.57" cy="160.53" rx="0.36" ry="0.19" transform="translate(-59.13 134.38) rotate(-35.15)"/><ellipse class="cls-24" cx="188.11" cy="160.7" rx="0.36" ry="0.19" transform="translate(-58.22 137.6) rotate(-35.15)"/><ellipse class="cls-22" cx="194.86" cy="161.48" rx="0.36" ry="0.19" transform="translate(-57.43 141.63) rotate(-35.15)"/><ellipse class="cls-22" cx="200.4" cy="161.99" rx="0.36" ry="0.19" transform="translate(-56.72 144.92) rotate(-35.15)"/><ellipse class="cls-22" cx="206.3" cy="163.67" rx="0.36" ry="0.19" transform="translate(-56.61 148.62) rotate(-35.15)"/><ellipse class="cls-22" cx="211.2" cy="165.55" rx="0.36" ry="0.19" transform="translate(-56.8 151.78) rotate(-35.15)"/><ellipse class="cls-22" cx="268.93" cy="155.59" rx="0.36" ry="0.25" transform="translate(5.16 319.77) rotate(-61.95)"/><ellipse class="cls-25" cx="270.46" cy="149.57" rx="0.36" ry="0.25" transform="translate(11.28 317.93) rotate(-61.95)"/><ellipse class="cls-25" cx="272.55" cy="144.67" rx="0.36" ry="0.25" transform="translate(16.71 317.18) rotate(-61.95)"/><ellipse class="cls-22" cx="274.54" cy="140.07" rx="0.36" ry="0.25" transform="translate(21.83 316.49) rotate(-61.95)"/><ellipse class="cls-22" cx="276.97" cy="136.37" rx="0.36" ry="0.25" transform="translate(26.37 316.68) rotate(-61.95)"/><ellipse class="cls-22" cx="279.6" cy="133.56" rx="0.36" ry="0.25" transform="translate(30.25 317.51) rotate(-61.95)"/><ellipse class="cls-22" cx="282.37" cy="130.93" rx="0.36" ry="0.25" transform="translate(34.04 318.56) rotate(-61.95)"/><ellipse class="cls-22" cx="284.9" cy="128.54" rx="0.36" ry="0.25" transform="translate(37.48 319.53) rotate(-61.95)"/><ellipse class="cls-22" cx="286.83" cy="125.94" rx="0.36" ry="0.25" transform="translate(40.8 319.85) rotate(-61.95)"/><ellipse class="cls-22" cx="215.91" cy="168.33" rx="0.36" ry="0.19" transform="translate(-57.54 155) rotate(-35.15)"/><ellipse class="cls-22" cx="219.27" cy="171.62" rx="0.36" ry="0.19" transform="translate(-58.82 157.54) rotate(-35.15)"/><path class="cls-26" d="M269.88,180.59c-5.19.67-8.53,1.06-10.39,1.24"/><path class="cls-21" d="M271.91,177.77c-5.92.77-10.54,1.44-12.6,1.65"/><path class="cls-21" d="M273.81,174.76c-6.88.93-12.63,1.69-14.95,1.92"/><path class="cls-26" d="M275.63,171.21c-7.72,1.06-14.57,1.95-17.17,2.22"/><path class="cls-26" d="M277.59,168.12c-8.43,1.12-16.71,2.15-19.48,2.44"/><path class="cls-5" d="M200.33,135.78s3.94.9,4.81,2.76,4.43,4.41,4.77,4.1"/><path class="cls-2" d="M210.81,127.23c3.83-5.39,3.87-9.54,3.87-9.54-.26-3.65.06-4.58-4.94-8.77l-6.29-3.25L193.63,117s-4.91-.27-11.78,10.63c-1.3-1-7,5.72-16.3,13-2.29,1.8-5.83,2.31-8.85,3.82,0,0-2.89,1.68,2.36,1.51,0,0-2,1.58,2.56.87,0,0-2.63,2.43,3.28,2.14-.1.08-5.12,3.32,2.13,2.32,0,0-3.05,2.66,3.05,1.49"/><path class="cls-26" d="M106.24,171.05s-.53,1.42,5.19,2.81,27.23,6.77,49.59,8.71,31.12,1.2,44-2,29.12-13.76,50-16.9c0,0,14.79-1.58,26.75-3.47"/><path class="cls-5" d="M250.34,162.76s-3.15-10.17-11.77-13.34"/><path class="cls-5" d="M215.35,149.57s-35.81,5.86-45.69,4.26"/><path class="cls-21" d="M280.59,162.12c-2.09.26-3.35.51-6.2.77-6.19.55-13.63,1.92-18.74,2.48-12.62,1.36-20.62,5.82-28.9,9.47a149.32,149.32,0,0,1-34.84,10.51c-6.73,1.16-12.36,1.25-27.76.46-30.34-2.61-51-8.54-51-8.54s-6.26-1.51-7.21-3.33"/><path class="cls-9" d="M.52,100.23l3.22-1.08s4.16-1,6-3.79S26.63,74.3,26.63,74.3s6-9.94,6-11.16,2.94-6.61,2.94-6.61,2.57-1.59,4-18.73S38.12,3.23,38.12,3.23l.52-1a.8.8,0,0,1,.43-.56c1.72-1.1,35.38-2.33,52.16.61,0,0,6.49.25,7.59,1.84a1.71,1.71,0,0,1,.52,1.53l0,.88c.39,1.53-.55,7.47-.55,7.47-1.93,13.4,2.68,25,2.68,33.79s8.93,19.34,10.4,27.79c1.19,6.84-.41,14.44-1.11,16.78l-.7,1.07c-.16.56-.26.86-.26.86l.68,9.15"/><path class="cls-2" d="M71,13.62l1.91.58-.2,2.37-.12,1.58V26.6l-.48,8.58v1.59H66.7l.09-1.1s-1.1-3.19-.49-5.39,1-10.77,1-10.77"/><polygon class="cls-20" points="176.03 104.6 174.94 105.15 173.3 110.22 172.95 109.93 174.78 104.49 176.03 104.6"/><polygon class="cls-12" points="66.02 11.19 67.27 23.73 67.87 13.33 66.02 11.19"/><path class="cls-2" d="M179.62,104.61s-4.45-3.32-6.16-1.77l0,1.28c-.33-.44,3.41-.26,4.29,1,.53.8.31,1,.31,1S180.55,106.29,179.62,104.61Z"/><polygon class="cls-10" points="170.15 103.91 169.8 104.99 170.06 105.75 170.33 104.8 170.15 103.91"/><path class="cls-2" d="M175.46,116.81a9.9,9.9,0,0,0,1.73.84s1.56-2.64,2.27-2.79-5.14-2.17-5.52-1.75"/><polygon class="cls-12" points="175.06 117.86 176.88 118.4 177.5 117.55 175.55 117.05 175.06 117.86"/><path class="cls-7" d="M106.92,148.23l-3.9.68s-8.79-18.66-8.79-26.26C94.23,122.65,106.59,145.2,106.92,148.23Z"/><path class="cls-12" d="M37.73,148.16C36.67,137,42,135.44,42,135.44h.56l-1,4.28-.58,4.54v.56s-1.63-.54-2.5.2c-.38.58-.21,1.12-.29,2l0,1.31H38Z"/><path class="cls-12" d="M132,89.15s-.89-1-2.51,1-5.19,7.6-5.19,7.6l.6,1.11Z"/><path class="cls-17" d="M174.1,108.87A19.93,19.93,0,0,1,187,113.4"/><polygon class="cls-12" points="172.15 100.01 173.03 98.38 173.84 98.53 173.32 100.08 172.15 100.01"/><path class="cls-27" d="M32.47,147.83l-.5.4,4.4,1.19s23.4,5.36,33.61,5.46,26.73,1.56,44.16,0,37-6.64,45.05-7.46"/><path class="cls-12" d="M69.14,124.44l-.82.84s-11.2,1-12.75.56l-.72-.15,1.4-.13,2.12.06Z"/><polyline class="cls-15" points="69.48 129.14 68.7 129.48 69.01 129.77 68.22 129.86 67.87 129.58 67.87 128.41"/><path class="cls-12" d="M67.67,129.13s-2.92,5.49-3.17,7-2,2.33.65,11.14L67,147a18.93,18.93,0,0,1-.45-10.18c.82-3.88.32-3.65,3-7.07l-.92.16h-.34Z"/><path class="cls-12" d="M107.5,106.47s-7,7.1-13,9.69h-.68S106.92,106.25,107.5,106.47Z"/><path class="cls-5" d="M173,115.3l.47-.06a14,14,0,0,1,2.09.74,13.14,13.14,0,0,1,1.94,1"/><path class="cls-5" d="M173.29,114.69l.48-.06a13.89,13.89,0,0,1,2.09.73,14.72,14.72,0,0,1,1.94,1.06"/><path class="cls-5" d="M173.53,114.17l.48,0a13.44,13.44,0,0,1,2.08.73A14.32,14.32,0,0,1,178,115.9"/><path class="cls-5" d="M173.77,113.66l.47-.06a13.71,13.71,0,0,1,4,1.79"/><line class="cls-5" x1="205.27" y1="97.11" x2="190.9" y2="102.46"/><path class="cls-5" d="M132,88.69s-1-1.1-2.59.44-6.13,9-6.13,9-11.22,8-11.36,8.93"/><polygon class="cls-12" points="72.31 15.4 72.12 16.86 71.69 17.27 70.97 17.27 70.97 16.65 71.81 16.63 72.12 15.25 72.31 15.4"/><line class="cls-5" x1="67.87" y1="22.14" x2="70.26" y2="21.92"/><polyline class="cls-5" points="71.69 16.26 70.38 15.64 70.25 21.92"/><path class="cls-2" d="M39,4.22s.68-1,1.11-1.06,26.4-2.1,49.68.67c0,0,9.4-.14,8.65,2.4s-3.9,3.06-3.9,3.06"/><path class="cls-12" d="M200.84,137.24c1.11.64,2.87,1.89,3.09,2.48.7,1.95,4.24,3.73,4.24,3.73S202.23,141.39,200.84,137.24Z"/><path class="cls-12" d="M202.24,132.29a4.93,4.93,0,0,0-1.91,2.9s.79-3.34,1.62-3.33Z"/><path class="cls-12" d="M206.34,128.55l-2.23,2.36-.85-.69S205.42,127.91,206.34,128.55Z"/><path class="cls-5" d="M198.09,132.93a2.54,2.54,0,0,0,2,1.89"/><path class="cls-5" d="M202.91,129.59s-.59-2-2.29-.56c-1.15,1-.54,2,.51,2.13"/><path class="cls-12" d="M196.47,135.27s-5.78-5-11.55-6.94h0a1.15,1.15,0,0,1-.3-.71c2-4.69,8.72-8.87,8.72-8.87-7.79,1.85-8.85,7.64-9,9.1-.12.29,0,.34.1.35l12.16,7.54Z"/><path class="cls-2" d="M199.44,139.46c-2.13,2.76-14.57,9-18.28,11.09l-2.82,1.06s.24-.17-2.2.67a14.45,14.45,0,0,1-5.48.46c-6.1-.9.33-2.1.33-2.1"/><path class="cls-5" d="M198.92,138.92s-17.13,12.59-28.1,13.05c0,0-3.47-.33-1.94-.89"/><path class="cls-12" d="M173.25,149.81s7.12-2.14,8.39-5S175.62,148.3,173.25,149.81Z"/><path class="cls-12" d="M164.41,148.8a14.07,14.07,0,0,0,2.94-1.21c.46-.44-2.3,2.06-2.79,1.74S164.41,148.8,164.41,148.8Z"/><path class="cls-12" d="M161.34,144.11c.26.33-3,1.95-3.33,1.9s-.72.39,1.22.11"/><path class="cls-2" d="M214.46,115.08c.25-.28,12.72.83,12.72.83,10.08,2.3,50.17-3.42,51.68-3.49,0,0,1.13-.41,1,.73,0,0,1,1-6.33,5.45-6.42,3.87-14.3,9-27.52,8.41s-14-5.25-31.23-10.23"/><path class="cls-5" d="M202.91,106.37l6.33,3.19a9.07,9.07,0,0,1,4.48,10s-2.09,5.53-3.81,7.45"/><path class="cls-5" d="M248,134.66l-.8.83"/><path class="cls-5" d="M249.32,134.71l-.74.78"/><path class="cls-5" d="M251.64,134.38c-.39.42-.55.58-.88.91"/><path class="cls-5" d="M253.58,134.33,253,135"/><path class="cls-5" d="M214.46,116.09s6.95.28,10.75.83"/><path class="cls-5" d="M281.4,113.05s1.43.56-3.36,4-12.33,6.93-14.2,7.76"/><path class="cls-5" d="M158.91,151s.87.22.58.5c-1.1,1-7.49,3.73-7.24,4.3"/><path class="cls-5" d="M166.73,151.62l2.27-1.43c-.24.08-5,1.33-5.73.45"/><path class="cls-5" d="M169,152.36a6.87,6.87,0,0,1-2.75.34"/><path class="cls-4" d="M184.45,128.19s8.5,6.07,11.42,8"/></svg>