<svg id="圖層_2" data-name="圖層 2" xmlns="http://www.w3.org/2000/svg" viewBox="0 0 924.33 924.33">
  <defs>
    <style>
      .cls-1, .cls-2, .cls-3 {
        fill: none;
        stroke: #000;
      }

      .cls-1, .cls-2 {
        stroke-miterlimit: 10;
      }

      .cls-1, .cls-3 {
        stroke-width: 3px;
      }

      .cls-3 {
        stroke-linecap: round;
        stroke-linejoin: round;
      }
    </style>
  </defs>
  <title>文章介紹</title>
  <path class="cls-1" d="M311.35,345.73s-30.08,18.64-34.23,31.09-8.3,45-7.7,49.77"/>
  <path class="cls-2" d="M300.23,373.85s-7.11-7.4-13.92-1.48-11.26,38.82-11.26,38.82l-5.72,15.37"/>
  <path class="cls-2" d="M397.42,438.15s68.44,34.81,89.77,40.59c0,0,3.56,4.45-2.66,13.78S465,517.41,452.08,514.74s-78.66-27.55-78.66-27.55L370,489l-8.89-1-2.07-1.78-31.86-19.56-1.11-5.4L329,444.52l-2-1.33.67-6.89,3.78,1.85,4.66-24.74.89-1.56"/>
  <line class="cls-2" x1="382.08" y1="436.52" x2="374.31" y2="484.74"/>
  <polyline class="cls-2" points="341.64 418.52 367.19 432.96 368.97 436.52 362.31 471.85 358.31 477.19 335.42 462.07 335.42 447.85 338.53 447.85 340.75 446.52 341.19 440.3 339.64 438.15 342.53 424.3 345.42 422.52"/>
  <polyline class="cls-2" points="339.19 419.63 336.53 435.22 335.42 436.52 332.97 436.52"/>
  <line class="cls-2" x1="334.08" y1="447.85" x2="330.31" y2="444.96"/>
  <polyline class="cls-2" points="332.97 448.96 332.19 460.63 334.08 463.45 354.31 477.19 357.42 478.3"/>
  <path class="cls-2" d="M383,439.19s83.56,38.22,92.89,40.66,5.78,6.45,5.78,6.45S462.53,508.08,459,509s-80.78-25.55-80.78-25.55"/>
  <path class="cls-2" d="M276.82,410s15,32.89,49.26,43"/>
  <path class="cls-2" d="M280.08,402.59s2.52,26.23,46,45.26"/>
  <path class="cls-2" d="M292.53,375.93s-2.15,13.77,39.66,35.92"/>
  <path class="cls-2" d="M294.6,372.37s-13,24.89-14.52,27.26"/>
  <path class="cls-3" d="M172.6,103.35c.41,10.89,2,64.61-5.41,95.39,0,0,24.3,9.48,41.49,10.67,0,0-5.34,11.85,4.74,12.44h8.29s1.19,10.08,7.71,10.67,43.26,17.78,45.63,24.89S314.16,277,314.16,277l1.9,2.13"/>
  <path class="cls-3" d="M513.12,278.7c.56-.08.63-1.21,1.19-1.29l3.55-1.93-1.33-2.81s-7.41-3.41-10.37-49,7.61,2.88,5-219.84"/>
  <path class="cls-2" d="M315.93,279.63s76.33,15.85,196.7-2"/>
  <path class="cls-1" d="M311.35,345.73c4.41-12.42,8.25-46,4.27-67.1"/>
  <path class="cls-2" d="M540.65,322.27c-18.83,8.14-109.86,50.16-145.9,115.88l-11.56-3.85v-3l-38.81-20.74-6.82.3s-44.44-29-38.51-35.26l3.26.3s1.48-21.34,6.51-25.48c.82-.67,1.68-2.32,2.53-4.72"/>
  <path class="cls-1" d="M540.65,322.27c2.22-1,3.43-1.45,3.43-1.45s29.78,29,34.67,44.14,12.89,21,12.89,21c26.67,13,40.89,85.19,40.89,85.19,10.22-4.89,13.78,2.9,13.78,2.9s11.55,32.65,18.66,48.65,3.56,19.11,3.56,19.11c-24.45,42.23-118.41,70.67-118.41,70.67L441.86,641.85l-11.61-29.77s-26.61,10.66-50.17,23.11-82.22,41.77-121.33,52-57.33,3.11-79.56,0S137,655.63,128.53,649s-16.45-39.11-16.45-39.11l2.23-33.33-2.23-1.78v-28l36-23.11,2.23-4.44,29.77-14.67h7.11c4.45-2.22,42.67-6.22,42.67-6.22l1.93,2.07c5-1.78,20.44-39.7,20.44-39.7l6.52-1.78v-3.08l3-8.77,7.62-20.48"/>
  <path class="cls-2" d="M369,491.48s-5.34,58.42,13.11,96"/>
  <path class="cls-2" d="M366.9,546.59l-66.67,46.52s-1.48,6.52-16.15-18.37-29.33-40.16-24.89-111.41"/>
  <path class="cls-2" d="M300.23,596.52s13,15.11,32,12.89v3.11s-34.33,20.89-77.88,31.11h-4.45c-45.33-48.44-40.44-73.78-41.33-91.11s5.78-40.44,5.78-40.44l17.48-9.78"/>
  <path class="cls-2" d="M644.08,472.64s16.6,10.82-55.11,44.77c-70.57,33.41-186.22,68-204,81.33S220.53,687.63,169.86,654.3s-48.65-42.68-52.44-55.11"/>
  <path class="cls-2" d="M155.34,524.37s-24.59,11.56-29.92,28.74-8.6,25.48-5.63,45.63,50.66,57.19,72,57.48,38.09,5.63,113.18-24.29,88.64-51.77,181.34-83.41C584.38,515,625.86,490.19,633,475.73"/>
  <path class="cls-2" d="M599.19,425.22v6.26s17.34,27.71,17.34,55.26"/>
  <line class="cls-2" x1="231.79" y1="626.96" x2="211.86" y2="626.96"/>
  <path class="cls-2" d="M153,523.41v-1.78l37.78,7v2.58S161.42,544.52,153,570.3,139.86,603,161.42,637"/>
  <path class="cls-2" d="M208.45,528.61,173.19,550.3s-12.51,6.64-16.88,14.89"/>
  <path class="cls-2" d="M206.31,546.9s-12.15,16.58-12.45,35.25,6.82,53,32.89,64.89c0,0,8.5,1,21.56-2.08"/>
  <line class="cls-2" x1="380.23" y1="589.26" x2="334.08" y2="611.78"/>
  <path class="cls-2" d="M383,587.85l7.26-1s14-9.12,26.45-13.86a256,256,0,0,1,26.22-8.11"/>
  <path class="cls-2" d="M231.79,649.41s-38,8.47-69-11-42-36.15-42-36.15"/>
  <polygon class="cls-2" points="124.82 549.41 114.01 547.63 114.9 575.78 122.01 555.78 124.82 551.93 124.82 549.41"/>
  <polygon points="152.38 525.91 156.92 523.53 159.53 522.84 152.53 521.16 152.38 525.91"/>
  <path class="cls-2" d="M189.19,503.87s25.56-.46,39.34-1.57"/>
  <path class="cls-2" d="M371.64,573s-57.78,28.15-65.48,27.56"/>
  <path class="cls-1" d="M513.12,277.66S523.64,313,529,317s8.24,1.72,11.68,5.31"/>
  <path class="cls-3" d="M773.71,356.94c46.26-4.83,93-16.8,123.26-34.67"/>
  <path class="cls-2" d="M601.48,298.74c3.45,12.86,14,31.84,45.07,47,27.19,13.26,76.88,16.46,127.16,11.21"/>
  <path class="cls-3" d="M633.86,33.51S625,124.08,617.42,130.3s-17.34,153.78-17.34,153.78-.93,5.92,1.4,14.66"/>
  <path class="cls-2" d="M576.21,318.26c-6.81,6.44-13.28,12.95-14.94,15.89"/>
  <path class="cls-3" d="M599.9,300.08l-5.15,1.31s-9.57,8.38-18.54,16.87"/>
  <path class="cls-1" d="M575.93,317.11s-31.92-1.33-41.07,2.52"/>
  <path class="cls-2" d="M772,377c-.12,3.14-.16,6.21-.09,8.74.3,9.49-.59,25.49-13.33,24.6s-24,7.11-24,7.11-49.48,18.68-114.37,11"/>
  <path class="cls-3" d="M773.12,359.34s-.79,9.05-1.1,17.62"/>
  <path class="cls-2" d="M733.86,367.63s-7.11,28.45-5.78,34.67-3.55,14.22-3.55,14.22"/>
  <path class="cls-2" d="M606,315.19s-5.93,14.81-11,15.7-25.78,13.33-25.78,13.33l3.55-12.74L598,306.89h4.74"/>
  <path class="cls-2" d="M769.18,480c-4.74-12.2-9.1-35.91-9.1-35.91s5.34-11.12,5.34-16.45,2.37-14.22-2.23-15.78"/>
  <path class="cls-3" d="M773.12,377s6.07,14.67,4.3,27.12,1.77,56.28,2.22,59.25-.59,27.41-6.52,23.41c-1.29-.87-2.63-3.36-3.94-6.75"/>
  <path class="cls-2" d="M757.71,447.93s-2.66-.78-1.78,8.05,2.67,14.93,5.34,18.11"/>
  <path class="cls-2" d="M767.4,515c0,2.35-.11,4.27-.21,5.51-.59,7.41,1.19,21-3.85,28.44s-10.07,28.45-56.89,37.63-62.81,7.71-86.22-1.48"/>
  <path class="cls-3" d="M767.19,481.11s.42,22.2.21,33.9"/>
  <line class="cls-2" x1="691.05" y1="586.3" x2="691.05" y2="540.67"/>
  <path class="cls-3" d="M769.91,517.41a16.21,16.21,0,0,1,5.73,9.33C777,533,779.73,609,779.73,609s-10.31,42.73-110.31,47.81c0,0-48.93,1.23-70.23-26.47S581,604.52,581,604.52"/>
  <path class="cls-2" d="M401,292.52s-2.22,22.07,0,24.37-14.22,52.52-39.11,38.74"/>
  <path class="cls-2" d="M282.31,421.85s-14.52,60.3-23.26,67.56"/>
  <path class="cls-2" d="M201.07,569.68l5.68-4.49v-9.11l-2.22,3.55s-7.41,18.07-5.93,27.85S201,631.19,231.79,645"/>
  <polygon class="cls-2" points="357.42 450.3 355.42 452.96 357.42 453.85 357.42 450.3"/>
  <polygon class="cls-2" points="389.42 463.63 389.42 467.41 386.08 467.41 389.42 463.63"/>
  <path class="cls-2" d="M374.31,491.48s-7.78,44.6,8.66,91.26"/>
  <path class="cls-2" d="M253.42,463.33s-6.67,10.52,1.77,58.3,47.23,96.27,69.34,90.15"/>
  <path class="cls-2" d="M215.1,514s-9.29,43.26,0,68.74,35.82,58.37,35.82,58.37"/>
  <path class="cls-2" d="M204.53,544.22s-12.6,13.34-15.34,30.23,3.11,64,32.63,72.75"/>
  <path class="cls-2" d="M544.08,325.56s-100,47.85-142.91,111"/>
  <path class="cls-2" d="M761.27,414.74a51.24,51.24,0,0,0-25.19,7.11c-12.89,7.56-67.55,21.33-112,10.22"/>
  <path class="cls-2" d="M666.41,526.17S654.31,550.3,607.86,573s-115.33,42.23-169.11,54"/>
  <path class="cls-2" d="M657.28,503.81s-1.94,22-88,55.38-136.74,52.59-136.74,52.59"/>
  <path class="cls-2" d="M653.29,493.27s-22.1,29.32-78.1,51-149.77,52.83-149.77,52.83-17.34,18.58-53.78,33.25S282,679.73,225.42,681.85s-90.67-23.11-108-62.22L114,611.78"/>
  <path class="cls-2" d="M650.11,484.65s-19.8,27.28-91.8,52.46-136,50.37-136,50.37L290.75,651.25s-110.52,53.33-165.93-24.48A174.13,174.13,0,0,1,114,604.08"/>
  <line class="cls-2" x1="686.31" y1="359.34" x2="686.31" y2="381.04"/>
  <path class="cls-2" d="M775.19,559s-12.84,46.37-111.11,47.26c0,0-25.92,2.75-58.07-13.51"/>
  <circle class="cls-2" cx="462.16" cy="462.16" r="461.66"/>
</svg>
