<svg id="圖層_1" data-name="圖層 1" xmlns="http://www.w3.org/2000/svg" viewBox="0 0 27.1 23.82"><defs><style>.cls-1{fill:#65737f;}</style></defs><path class="cls-1" d="M8.79,15.88H23.13a.78.78,0,0,0,.76-.58L27.07,4.19a.8.8,0,0,0-.13-.7.78.78,0,0,0-.63-.31H7L6.39.62A.8.8,0,0,0,5.61,0H.79A.8.8,0,0,0,0,.79a.8.8,0,0,0,.79.8H5l2.87,12.9a2.38,2.38,0,0,0,.95,4.56H23.13a.79.79,0,1,0,0-1.58H8.79a.8.8,0,0,1-.8-.8A.79.79,0,0,1,8.79,15.88Z"/><path class="cls-1" d="M8,21.44a2.39,2.39,0,1,0,2.38-2.39A2.39,2.39,0,0,0,8,21.44Z"/><path class="cls-1" d="M19.16,21.44a2.38,2.38,0,1,0,2.38-2.39A2.39,2.39,0,0,0,19.16,21.44Z"/></svg>