<svg id="圖層_1" data-name="圖層 1" xmlns="http://www.w3.org/2000/svg" viewBox="0 0 20 24"><defs><style>.cls-1{fill:#65737f;}</style></defs><path class="cls-1" d="M6.48,2.16H7.71A.18.18,0,0,0,7.9,2c0-.07,0-.14,0-.21,0-.23.07-.29.31-.29h3.41c.49,0,.5,0,.51.46,0,.14,0,.23.21.23h1.17c.11,0,.21,0,.21-.16a4,4,0,0,0,0-.91A1.47,1.47,0,0,0,12.6,0H7.44a1.67,1.67,0,0,0-.85.52A2,2,0,0,0,6.29,2C6.29,2.14,6.39,2.16,6.48,2.16Z"/><path class="cls-1" d="M17.38,7.85a2.69,2.69,0,0,0-.4,0H3.07a2.68,2.68,0,0,0-.4,0,.7.7,0,0,0-.65.8c.15,1.62.3,3.25.44,4.87.11,1.27.21,2.53.31,3.8l.45,5.13A1.61,1.61,0,0,0,4.87,24H15.14a1.55,1.55,0,0,0,1.59-1.25,7.19,7.19,0,0,0,.11-1c.1-1.1.19-2.19.29-3.29l.21-2.52c.1-1.09.19-2.19.29-3.28.08-.86.16-1.72.23-2.59,0-.5.1-1,.12-1.51A.65.65,0,0,0,17.38,7.85Z"/><path class="cls-1" d="M19.94,5.51c-.13-.38-.26-.76-.4-1.14a1.09,1.09,0,0,0-1.25-.82H1.63a1.05,1.05,0,0,0-1.1.65C.35,4.66.19,5.13,0,5.6a.59.59,0,0,0,.3.75,1,1,0,0,0,.51.08H19.21C19.85,6.43,20.13,6.07,19.94,5.51Z"/></svg>